<?xml version="1.0" encoding="UTF-8"?>
<!DOCTYPE svg PUBLIC "-//W3C//DTD SVG 1.1//EN" "http://www.w3.org/Graphics/SVG/1.1/DTD/svg11.dtd">
<!-- Creator: CorelDRAW 2021 (64-Bit Deneme Sürümü) -->
<svg xmlns="http://www.w3.org/2000/svg" xml:space="preserve" width="67.7358mm" height="84.6666mm" version="1.1" style="shape-rendering:geometricPrecision; text-rendering:geometricPrecision; image-rendering:optimizeQuality; fill-rule:evenodd; clip-rule:evenodd"
viewBox="0 0 6773.58 8466.66"
 xmlns:xlink="http://www.w3.org/1999/xlink"
 xmlns:xodm="http://www.corel.com/coreldraw/odm/2003">
 <defs>
  <style type="text/css">
   <![CDATA[
    .str21 {stroke:#4595FF;stroke-width:133.35;stroke-linecap:round;stroke-linejoin:round;stroke-miterlimit:22.9256;stroke-opacity:0.062745}
    .str2 {stroke:#4595FF;stroke-width:213.81;stroke-linecap:round;stroke-linejoin:round;stroke-miterlimit:22.9256;stroke-opacity:0.062745}
    .str20 {stroke:#4596FF;stroke-width:78.49;stroke-linecap:round;stroke-linejoin:round;stroke-miterlimit:22.9256;stroke-opacity:0.090196}
    .str1 {stroke:#4590FF;stroke-width:251.61;stroke-linecap:round;stroke-linejoin:round;stroke-miterlimit:22.9256;stroke-opacity:0.200000}
    .str12 {stroke:#4590FF;stroke-width:156.98;stroke-linecap:round;stroke-linejoin:round;stroke-miterlimit:22.9256;stroke-opacity:0.200000}
    .str13 {stroke:#4595FF;stroke-width:133.35;stroke-linecap:round;stroke-linejoin:round;stroke-miterlimit:22.9256;stroke-opacity:0.250980}
    .str3 {stroke:#4596FF;stroke-width:125.74;stroke-linecap:round;stroke-linejoin:round;stroke-miterlimit:22.9256;stroke-opacity:0.301961}
    .str14 {stroke:#4596FF;stroke-width:78.49;stroke-linecap:round;stroke-linejoin:round;stroke-miterlimit:22.9256;stroke-opacity:0.301961}
    .str9 {stroke:black;stroke-width:6.56;stroke-miterlimit:22.9256}
    .str11 {stroke:#00003D;stroke-width:6.56;stroke-miterlimit:22.9256}
    .str10 {stroke:#333333;stroke-width:158.81;stroke-linecap:round;stroke-linejoin:round;stroke-miterlimit:22.9256}
    .str5 {stroke:#459EFF;stroke-width:138.34;stroke-linecap:round;stroke-linejoin:round;stroke-miterlimit:22.9256}
    .str19 {stroke:#6CFEFF;stroke-width:15.75;stroke-linecap:round;stroke-linejoin:round;stroke-miterlimit:22.9256}
    .str6 {stroke:#45A2FF;stroke-width:100.67;stroke-linecap:round;stroke-linejoin:round;stroke-miterlimit:22.9256}
    .str18 {stroke:#45C4FF;stroke-width:39.24;stroke-linecap:round;stroke-linejoin:round;stroke-miterlimit:22.9256}
    .str0 {stroke:#333333;stroke-width:246.75;stroke-linecap:round;stroke-linejoin:round;stroke-miterlimit:22.9256}
    .str17 {stroke:#45A2FF;stroke-width:62.74;stroke-linecap:round;stroke-linejoin:round;stroke-miterlimit:22.9256}
    .str7 {stroke:#45C4FF;stroke-width:62.87;stroke-linecap:round;stroke-linejoin:round;stroke-miterlimit:22.9256}
    .str16 {stroke:#459EFF;stroke-width:86.36;stroke-linecap:round;stroke-linejoin:round;stroke-miterlimit:22.9256}
    .str4 {stroke:#459BFF;stroke-width:176.14;stroke-linecap:round;stroke-linejoin:round;stroke-miterlimit:22.9256}
    .str8 {stroke:#6CFEFF;stroke-width:25.2;stroke-linecap:round;stroke-linejoin:round;stroke-miterlimit:22.9256}
    .str15 {stroke:#459BFF;stroke-width:109.86;stroke-linecap:round;stroke-linejoin:round;stroke-miterlimit:22.9256}
    .fil0 {fill:none;fill-rule:nonzero}
    .fil2 {fill:none;fill-rule:nonzero}
    .fil5 {fill:none;fill-rule:nonzero}
    .fil1 {fill:none;fill-rule:nonzero}
    .fil4 {fill:none;fill-rule:nonzero}
    .fil3 {fill:none;fill-rule:nonzero}
   ]]>
  </style>
   <clipPath id="id0">
    <rect x="1642.66" y="1696.53" width="3963.75" height="4738.13"/>
   </clipPath>
   <clipPath id="id1">
    <rect x="-50.47" y="16.53" width="6811.88" height="7573.13"/>
   </clipPath>
   <clipPath id="id2">
    <rect x="4539.27" y="6866.91" width="748.12" height="1036.88"/>
   </clipPath>
   <clipPath id="id3">
    <rect x="1625.52" y="6866.91" width="761.25" height="1036.88"/>
   </clipPath>
   <clipPath id="id4">
    <rect x="3082.39" y="6866.91" width="748.13" height="1036.88"/>
   </clipPath>
   <clipPath id="id5">
    <rect x="3804.27" y="6866.91" width="761.25" height="1036.88"/>
   </clipPath>
   <clipPath id="id6">
    <rect x="2347.39" y="6866.91" width="748.13" height="1036.88"/>
   </clipPath>
   <clipPath id="id7">
    <rect x="3646.77" y="5974.41" width="2165.62" height="2454.38"/>
   </clipPath>
   <clipPath id="id8">
    <rect x="733.02" y="5974.41" width="2178.75" height="2454.38"/>
   </clipPath>
   <clipPath id="id9">
    <rect x="2189.89" y="5974.41" width="2165.63" height="2454.38"/>
   </clipPath>
   <clipPath id="id10">
    <rect x="2911.77" y="5974.41" width="2178.75" height="2454.38"/>
   </clipPath>
   <clipPath id="id11">
    <rect x="1454.89" y="5974.41" width="2165.63" height="2454.38"/>
   </clipPath>
 </defs>
 <g id="Katman_x0020_1">
  <metadata id="CorelCorpID_0Corel-Layer"/>
  <g style="clip-path:url(#id0)">
   <image x="1642.66" y="1696.53" width="3963.75" height="4738.13" xlink:href="paper_Images\paper_ImgID1.png"/>
  </g>
  <path class="fil0 str0" d="M2197.19 2536.53l0 1045.8m609.65 -1539.56l0 1539.56m650.35 -1246.87l0 1246.88m-740.91 1443.22m1350.69 -732.77l-617.92 0c-0.28,0 -0.55,0 -0.82,0 -212.83,0 -415.21,92.89 -553.98,254.14m1412.78 -479.76l-240.06 225.62 0 -1940.01c0,-166.82 -124.16,-321.17 -304.89,-321.17 0,0.01 0,0.01 0,0.01 -168.32,0 -304.82,136.42 -304.89,304.74l0 -275.63c0,-175.22 -130.07,-342.56 -325.11,-342.56 0,0.02 0,0.02 0,0.02 -179.55,0 -325.2,145.57 -325.24,325.12l0 -18.65c0,-165.24 -124.82,-305.81 -304.76,-305.81 -168.36,0 -304.89,136.53 -304.89,304.89l0 512.79c0,-147.56 -119.67,-267.23 -267.23,-267.23 -160.26,0 -267.09,131.25 -267.09,277.99l0 2194.25c0,624.62 503.34,1139.78 1128.75,1139.78 610.71,0 979.26,-212.49 1314.99,-584.72l909.17 -987.4c28.48,-30.89 44.33,-71.46 44.33,-113.5 0,-44.59 -17.81,-87.39 -49.44,-118.82l-0.01 0c-94.79,-94.12 -223.19,-147.1 -356.84,-147.1 -128.83,0 -252.96,49.15 -346.8,137.36l0.01 0.03z"/>
  <g style="clip-path:url(#id1)">
   <image x="-50.47" y="16.53" width="6811.88" height="7573.13" xlink:href="paper_Images\paper_ImgID2.png"/>
  </g>
  <g id="_3011746462208">
   <path class="fil1 str1" d="M2197.19 2536.53l0 1045.8m609.65 -1539.56l0 1539.56m650.35 -1246.87l0 1246.88m-740.91 1443.22m1350.69 -732.77l-617.92 0c-0.28,0 -0.55,0 -0.82,0 -212.83,0 -415.21,92.89 -553.98,254.14m1412.78 -479.76l-240.06 225.62 0 -1940.01c0,-166.82 -124.16,-321.17 -304.89,-321.17 0,0.01 0,0.01 0,0.01 -168.32,0 -304.82,136.42 -304.89,304.74l0 -275.63c0,-175.22 -130.07,-342.56 -325.11,-342.56 0,0.02 0,0.02 0,0.02 -179.55,0 -325.2,145.57 -325.24,325.12l0 -18.65c0,-165.24 -124.82,-305.81 -304.76,-305.81 -168.36,0 -304.89,136.53 -304.89,304.89l0 512.79c0,-147.56 -119.67,-267.23 -267.23,-267.23 -160.26,0 -267.09,131.25 -267.09,277.99l0 2194.25c0,624.62 503.34,1139.78 1128.75,1139.78 610.71,0 979.26,-212.49 1314.99,-584.72l909.17 -987.4c28.48,-30.89 44.33,-71.46 44.33,-113.5 0,-44.59 -17.81,-87.39 -49.44,-118.82l-0.01 0c-94.79,-94.12 -223.19,-147.1 -356.84,-147.1 -128.83,0 -252.96,49.15 -346.8,137.36l0.01 0.03z"/>
  </g>
  <g id="_3011746463840">
   <path class="fil2 str2" d="M2197.19 2536.53l0 1045.8m609.65 -1539.56l0 1539.56m650.35 -1246.87l0 1246.88m-740.91 1443.22m1350.69 -732.77l-617.92 0c-0.28,0 -0.55,0 -0.82,0 -212.83,0 -415.21,92.89 -553.98,254.14m1412.78 -479.76l-240.06 225.62 0 -1940.01c0,-166.82 -124.16,-321.17 -304.89,-321.17 0,0.01 0,0.01 0,0.01 -168.32,0 -304.82,136.42 -304.89,304.74l0 -275.63c0,-175.22 -130.07,-342.56 -325.11,-342.56 0,0.02 0,0.02 0,0.02 -179.55,0 -325.2,145.57 -325.24,325.12l0 -18.65c0,-165.24 -124.82,-305.81 -304.76,-305.81 -168.36,0 -304.89,136.53 -304.89,304.89l0 512.79c0,-147.56 -119.67,-267.23 -267.23,-267.23 -160.26,0 -267.09,131.25 -267.09,277.99l0 2194.25c0,624.62 503.34,1139.78 1128.75,1139.78 610.71,0 979.26,-212.49 1314.99,-584.72l909.17 -987.4c28.48,-30.89 44.33,-71.46 44.33,-113.5 0,-44.59 -17.81,-87.39 -49.44,-118.82l-0.01 0c-94.79,-94.12 -223.19,-147.1 -356.84,-147.1 -128.83,0 -252.96,49.15 -346.8,137.36l0.01 0.03z"/>
  </g>
  <g id="_3011746463552">
   <path class="fil3 str3" d="M2197.19 2536.53l0 1045.8m609.65 -1539.56l0 1539.56m650.35 -1246.87l0 1246.88m-740.91 1443.22m1350.69 -732.77l-617.92 0c-0.28,0 -0.55,0 -0.82,0 -212.83,0 -415.21,92.89 -553.98,254.14m1412.78 -479.76l-240.06 225.62 0 -1940.01c0,-166.82 -124.16,-321.17 -304.89,-321.17 0,0.01 0,0.01 0,0.01 -168.32,0 -304.82,136.42 -304.89,304.74l0 -275.63c0,-175.22 -130.07,-342.56 -325.11,-342.56 0,0.02 0,0.02 0,0.02 -179.55,0 -325.2,145.57 -325.24,325.12l0 -18.65c0,-165.24 -124.82,-305.81 -304.76,-305.81 -168.36,0 -304.89,136.53 -304.89,304.89l0 512.79c0,-147.56 -119.67,-267.23 -267.23,-267.23 -160.26,0 -267.09,131.25 -267.09,277.99l0 2194.25c0,624.62 503.34,1139.78 1128.75,1139.78 610.71,0 979.26,-212.49 1314.99,-584.72l909.17 -987.4c28.48,-30.89 44.33,-71.46 44.33,-113.5 0,-44.59 -17.81,-87.39 -49.44,-118.82l-0.01 0c-94.79,-94.12 -223.19,-147.1 -356.84,-147.1 -128.83,0 -252.96,49.15 -346.8,137.36l0.01 0.03z"/>
  </g>
  <path class="fil0 str4" d="M2197.19 2536.53l0 1045.8m609.65 -1539.56l0 1539.56m650.35 -1246.87l0 1246.88m-740.91 1443.22m1350.69 -732.77l-617.92 0c-0.28,0 -0.55,0 -0.82,0 -212.83,0 -415.21,92.89 -553.98,254.14m1412.78 -479.76l-240.06 225.62 0 -1940.01c0,-166.82 -124.16,-321.17 -304.89,-321.17 0,0.01 0,0.01 0,0.01 -168.32,0 -304.82,136.42 -304.89,304.74l0 -275.63c0,-175.22 -130.07,-342.56 -325.11,-342.56 0,0.02 0,0.02 0,0.02 -179.55,0 -325.2,145.57 -325.24,325.12l0 -18.65c0,-165.24 -124.82,-305.81 -304.76,-305.81 -168.36,0 -304.89,136.53 -304.89,304.89l0 512.79c0,-147.56 -119.67,-267.23 -267.23,-267.23 -160.26,0 -267.09,131.25 -267.09,277.99l0 2194.25c0,624.62 503.34,1139.78 1128.75,1139.78 610.71,0 979.26,-212.49 1314.99,-584.72l909.17 -987.4c28.48,-30.89 44.33,-71.46 44.33,-113.5 0,-44.59 -17.81,-87.39 -49.44,-118.82l-0.01 0c-94.79,-94.12 -223.19,-147.1 -356.84,-147.1 -128.83,0 -252.96,49.15 -346.8,137.36l0.01 0.03z"/>
  <path class="fil0 str5" d="M2197.19 2536.53l0 1045.8m609.65 -1539.56l0 1539.56m650.35 -1246.87l0 1246.88m-740.91 1443.22m1350.69 -732.77l-617.92 0c-0.28,0 -0.55,0 -0.82,0 -212.83,0 -415.21,92.89 -553.98,254.14m1412.78 -479.76l-240.06 225.62 0 -1940.01c0,-166.82 -124.16,-321.17 -304.89,-321.17 0,0.01 0,0.01 0,0.01 -168.32,0 -304.82,136.42 -304.89,304.74l0 -275.63c0,-175.22 -130.07,-342.56 -325.11,-342.56 0,0.02 0,0.02 0,0.02 -179.55,0 -325.2,145.57 -325.24,325.12l0 -18.65c0,-165.24 -124.82,-305.81 -304.76,-305.81 -168.36,0 -304.89,136.53 -304.89,304.89l0 512.79c0,-147.56 -119.67,-267.23 -267.23,-267.23 -160.26,0 -267.09,131.25 -267.09,277.99l0 2194.25c0,624.62 503.34,1139.78 1128.75,1139.78 610.71,0 979.26,-212.49 1314.99,-584.72l909.17 -987.4c28.48,-30.89 44.33,-71.46 44.33,-113.5 0,-44.59 -17.81,-87.39 -49.44,-118.82l-0.01 0c-94.79,-94.12 -223.19,-147.1 -356.84,-147.1 -128.83,0 -252.96,49.15 -346.8,137.36l0.01 0.03z"/>
  <path class="fil0 str6" d="M2197.19 2536.53l0 1045.8m609.65 -1539.56l0 1539.56m650.35 -1246.87l0 1246.88m-740.91 1443.22m1350.69 -732.77l-617.92 0c-0.28,0 -0.55,0 -0.82,0 -212.83,0 -415.21,92.89 -553.98,254.14m1412.78 -479.76l-240.06 225.62 0 -1940.01c0,-166.82 -124.16,-321.17 -304.89,-321.17 0,0.01 0,0.01 0,0.01 -168.32,0 -304.82,136.42 -304.89,304.74l0 -275.63c0,-175.22 -130.07,-342.56 -325.11,-342.56 0,0.02 0,0.02 0,0.02 -179.55,0 -325.2,145.57 -325.24,325.12l0 -18.65c0,-165.24 -124.82,-305.81 -304.76,-305.81 -168.36,0 -304.89,136.53 -304.89,304.89l0 512.79c0,-147.56 -119.67,-267.23 -267.23,-267.23 -160.26,0 -267.09,131.25 -267.09,277.99l0 2194.25c0,624.62 503.34,1139.78 1128.75,1139.78 610.71,0 979.26,-212.49 1314.99,-584.72l909.17 -987.4c28.48,-30.89 44.33,-71.46 44.33,-113.5 0,-44.59 -17.81,-87.39 -49.44,-118.82l-0.01 0c-94.79,-94.12 -223.19,-147.1 -356.84,-147.1 -128.83,0 -252.96,49.15 -346.8,137.36l0.01 0.03z"/>
  <path class="fil0 str7" d="M2197.19 2536.53l0 1045.8m609.65 -1539.56l0 1539.56m650.35 -1246.87l0 1246.88m-740.91 1443.22m1350.69 -732.77l-617.92 0c-0.28,0 -0.55,0 -0.82,0 -212.83,0 -415.21,92.89 -553.98,254.14m1412.78 -479.76l-240.06 225.62 0 -1940.01c0,-166.82 -124.16,-321.17 -304.89,-321.17 0,0.01 0,0.01 0,0.01 -168.32,0 -304.82,136.42 -304.89,304.74l0 -275.63c0,-175.22 -130.07,-342.56 -325.11,-342.56 0,0.02 0,0.02 0,0.02 -179.55,0 -325.2,145.57 -325.24,325.12l0 -18.65c0,-165.24 -124.82,-305.81 -304.76,-305.81 -168.36,0 -304.89,136.53 -304.89,304.89l0 512.79c0,-147.56 -119.67,-267.23 -267.23,-267.23 -160.26,0 -267.09,131.25 -267.09,277.99l0 2194.25c0,624.62 503.34,1139.78 1128.75,1139.78 610.71,0 979.26,-212.49 1314.99,-584.72l909.17 -987.4c28.48,-30.89 44.33,-71.46 44.33,-113.5 0,-44.59 -17.81,-87.39 -49.44,-118.82l-0.01 0c-94.79,-94.12 -223.19,-147.1 -356.84,-147.1 -128.83,0 -252.96,49.15 -346.8,137.36l0.01 0.03z"/>
  <path class="fil0 str8" d="M2197.19 2536.53l0 1045.8m609.65 -1539.56l0 1539.56m650.35 -1246.87l0 1246.88m-740.91 1443.22m1350.69 -732.77l-617.92 0c-0.28,0 -0.55,0 -0.82,0 -212.83,0 -415.21,92.89 -553.98,254.14m1412.78 -479.76l-240.06 225.62 0 -1940.01c0,-166.82 -124.16,-321.17 -304.89,-321.17 0,0.01 0,0.01 0,0.01 -168.32,0 -304.82,136.42 -304.89,304.74l0 -275.63c0,-175.22 -130.07,-342.56 -325.11,-342.56 0,0.02 0,0.02 0,0.02 -179.55,0 -325.2,145.57 -325.24,325.12l0 -18.65c0,-165.24 -124.82,-305.81 -304.76,-305.81 -168.36,0 -304.89,136.53 -304.89,304.89l0 512.79c0,-147.56 -119.67,-267.23 -267.23,-267.23 -160.26,0 -267.09,131.25 -267.09,277.99l0 2194.25c0,624.62 503.34,1139.78 1128.75,1139.78 610.71,0 979.26,-212.49 1314.99,-584.72l909.17 -987.4c28.48,-30.89 44.33,-71.46 44.33,-113.5 0,-44.59 -17.81,-87.39 -49.44,-118.82l-0.01 0c-94.79,-94.12 -223.19,-147.1 -356.84,-147.1 -128.83,0 -252.96,49.15 -346.8,137.36l0.01 0.03z"/>
  <g style="clip-path:url(#id2)">
   <image x="4539.27" y="6866.91" width="748.12" height="1036.88" xlink:href="paper_Images\paper_ImgID3.png"/>
  </g>
  <path class="fil0 str9" d="M4608.17 7205.67l192.41 0c77.28,-0.09 139.91,-62.78 139.91,-140.06 0,0 0,0 0,0l0 -73.37c0,-0.03 0,-0.1 0,-0.13 0,-77.26 -62.65,-139.91 -139.91,-139.91 0,0 0,0 0,0l-284.94 0.01 0 706.78"/>
  <line class="fil0 str9" x1="4788.25" y1="7305.68" x2="4940.5" y2= "7558.99" />
  <path class="fil0 str10" d="M4608.17 7205.67l192.41 0c77.28,-0.09 139.91,-62.78 139.91,-140.06 0,0 0,0 0,0l0 -73.37c0,-0.03 0,-0.1 0,-0.13 0,-77.26 -62.65,-139.91 -139.91,-139.91 0,0 0,0 0,0l-284.94 0.01 0 706.78"/>
  <line class="fil0 str10" x1="4788.25" y1="7305.68" x2="4940.5" y2= "7558.99" />
  <g style="clip-path:url(#id3)">
   <image x="1625.52" y="6866.91" width="761.25" height="1036.88" xlink:href="paper_Images\paper_ImgID4.png"/>
  </g>
  <path class="fil0 str10" d="M1704.27 7205.67l192.41 0c77.28,-0.09 139.91,-62.78 139.91,-140.06 0,0 0,0 0,0l0 -73.37c0,-0.03 0,-0.1 0,-0.13 0,-77.26 -62.65,-139.91 -139.91,-139.91 0,0 0,0 0,0l-284.95 0.01 0 706.78"/>
  <g style="clip-path:url(#id4)">
   <image x="3082.39" y="6866.91" width="748.13" height="1036.88" xlink:href="paper_Images\paper_ImgID5.png"/>
  </g>
  <path class="fil0 str10" d="M3156.15 7205.67l192.42 0c77.27,-0.09 139.9,-62.78 139.9,-140.06 0,0 0,0 0,0l0 -73.37c0.01,-0.03 0.01,-0.1 0.01,-0.13 0,-77.26 -62.65,-139.91 -139.91,-139.91 0,0 0,0 0,0l-284.95 0.01 0 706.78"/>
  <g style="clip-path:url(#id5)">
   <image x="3804.27" y="6866.91" width="761.25" height="1036.88" xlink:href="paper_Images\paper_ImgID6.png"/>
  </g>
  <polyline class="fil0 str9" points="4214.16,6852.21 3789.57,6852.21 3789.57,7558.99 4214.55,7558.99 "/>
  <line class="fil0 str9" x1="3882.75" y1="7205.67" x2="4125.83" y2= "7205.67" />
  <polyline class="fil0 str10" points="4214.16,6852.21 3789.57,6852.21 3789.57,7558.99 4214.55,7558.99 "/>
  <line class="fil0 str10" x1="3882.75" y1="7205.67" x2="4125.83" y2= "7205.67" />
  <g style="clip-path:url(#id6)">
   <image x="2347.39" y="6866.91" width="748.13" height="1036.88" xlink:href="paper_Images\paper_ImgID7.png"/>
  </g>
  <path class="fil0 str9" d="M2325.08 7558.99l0 -566.74c0,-0.01 0,-0.01 0,-0.01 0,-77.33 62.71,-140.04 140.04,-140.04 0.12,0 0.27,0 0.39,0l144.38 0.01c77.33,-0.01 140.04,62.7 140.04,140.03l0 566.74"/>
  <line class="fil0 str9" x1="2417.61" y1="7205.67" x2="2659.11" y2= "7205.67" />
  <path class="fil0 str10" d="M2325.08 7558.99l0 -566.74c0,-0.01 0,-0.01 0,-0.01 0,-77.33 62.71,-140.04 140.04,-140.04 0.12,0 0.27,0 0.39,0l144.38 0.01c77.33,-0.01 140.04,62.7 140.04,140.03l0 566.74"/>
  <line class="fil0 str10" x1="2417.61" y1="7205.67" x2="2659.11" y2= "7205.67" />
  <g style="clip-path:url(#id7)">
   <image x="3646.77" y="5974.41" width="2165.62" height="2454.38" xlink:href="paper_Images\paper_ImgID8.png"/>
  </g>
  <path class="fil0 str11" d="M4608.17 7205.67l192.41 0c77.28,-0.09 139.91,-62.78 139.91,-140.06 0,0 0,0 0,0l0 -73.37c0,-0.03 0,-0.1 0,-0.13 0,-77.26 -62.65,-139.91 -139.91,-139.91 0,0 0,0 0,0l-284.94 0.01 0 706.78"/>
  <line class="fil0 str11" x1="4788.25" y1="7305.68" x2="4940.5" y2= "7558.99" />
  <g id="_3010030851472">
   <path class="fil1 str12" d="M4608.17 7205.67l192.41 0c77.28,-0.09 139.91,-62.78 139.91,-140.06 0,0 0,0 0,0l0 -73.37c0,-0.03 0,-0.1 0,-0.13 0,-77.26 -62.65,-139.91 -139.91,-139.91 0,0 0,0 0,0l-284.94 0.01 0 706.78"/>
   <line class="fil1 str12" x1="4788.25" y1="7305.68" x2="4940.5" y2= "7558.99" />
  </g>
  <g id="_3010030853104">
   <path class="fil4 str13" d="M4608.17 7205.67l192.41 0c77.28,-0.09 139.91,-62.78 139.91,-140.06 0,0 0,0 0,0l0 -73.37c0,-0.03 0,-0.1 0,-0.13 0,-77.26 -62.65,-139.91 -139.91,-139.91 0,0 0,0 0,0l-284.94 0.01 0 706.78"/>
   <line class="fil4 str13" x1="4788.25" y1="7305.68" x2="4940.5" y2= "7558.99" />
  </g>
  <g id="_3010030853008">
   <path class="fil3 str14" d="M4608.17 7205.67l192.41 0c77.28,-0.09 139.91,-62.78 139.91,-140.06 0,0 0,0 0,0l0 -73.37c0,-0.03 0,-0.1 0,-0.13 0,-77.26 -62.65,-139.91 -139.91,-139.91 0,0 0,0 0,0l-284.94 0.01 0 706.78"/>
   <line class="fil3 str14" x1="4788.25" y1="7305.68" x2="4940.5" y2= "7558.99" />
  </g>
  <path class="fil0 str15" d="M4608.17 7205.67l192.41 0c77.28,-0.09 139.91,-62.78 139.91,-140.06 0,0 0,0 0,0l0 -73.37c0,-0.03 0,-0.1 0,-0.13 0,-77.26 -62.65,-139.91 -139.91,-139.91 0,0 0,0 0,0l-284.94 0.01 0 706.78"/>
  <line class="fil0 str15" x1="4788.25" y1="7305.68" x2="4940.5" y2= "7558.99" />
  <path class="fil0 str16" d="M4608.17 7205.67l192.41 0c77.28,-0.09 139.91,-62.78 139.91,-140.06 0,0 0,0 0,0l0 -73.37c0,-0.03 0,-0.1 0,-0.13 0,-77.26 -62.65,-139.91 -139.91,-139.91 0,0 0,0 0,0l-284.94 0.01 0 706.78"/>
  <line class="fil0 str16" x1="4788.25" y1="7305.68" x2="4940.5" y2= "7558.99" />
  <path class="fil0 str17" d="M4608.17 7205.67l192.41 0c77.28,-0.09 139.91,-62.78 139.91,-140.06 0,0 0,0 0,0l0 -73.37c0,-0.03 0,-0.1 0,-0.13 0,-77.26 -62.65,-139.91 -139.91,-139.91 0,0 0,0 0,0l-284.94 0.01 0 706.78"/>
  <line class="fil0 str17" x1="4788.25" y1="7305.68" x2="4940.5" y2= "7558.99" />
  <path class="fil0 str18" d="M4608.17 7205.67l192.41 0c77.28,-0.09 139.91,-62.78 139.91,-140.06 0,0 0,0 0,0l0 -73.37c0,-0.03 0,-0.1 0,-0.13 0,-77.26 -62.65,-139.91 -139.91,-139.91 0,0 0,0 0,0l-284.94 0.01 0 706.78"/>
  <line class="fil0 str18" x1="4788.25" y1="7305.68" x2="4940.5" y2= "7558.99" />
  <path class="fil0 str19" d="M4608.17 7205.67l192.41 0c77.28,-0.09 139.91,-62.78 139.91,-140.06 0,0 0,0 0,0l0 -73.37c0,-0.03 0,-0.1 0,-0.13 0,-77.26 -62.65,-139.91 -139.91,-139.91 0,0 0,0 0,0l-284.94 0.01 0 706.78"/>
  <line class="fil0 str19" x1="4788.25" y1="7305.68" x2="4940.5" y2= "7558.99" />
  <g style="clip-path:url(#id8)">
   <image x="733.02" y="5974.41" width="2178.75" height="2454.38" xlink:href="paper_Images\paper_ImgID9.png"/>
  </g>
  <path class="fil1 str12" d="M1704.27 7205.67l192.41 0c77.28,-0.09 139.91,-62.78 139.91,-140.06 0,0 0,0 0,0l0 -73.37c0,-0.03 0,-0.1 0,-0.13 0,-77.26 -62.65,-139.91 -139.91,-139.91 0,0 0,0 0,0l-284.95 0.01 0 706.78"/>
  <path class="fil4 str13" d="M1704.27 7205.67l192.41 0c77.28,-0.09 139.91,-62.78 139.91,-140.06 0,0 0,0 0,0l0 -73.37c0,-0.03 0,-0.1 0,-0.13 0,-77.26 -62.65,-139.91 -139.91,-139.91 0,0 0,0 0,0l-284.95 0.01 0 706.78"/>
  <path class="fil3 str14" d="M1704.27 7205.67l192.41 0c77.28,-0.09 139.91,-62.78 139.91,-140.06 0,0 0,0 0,0l0 -73.37c0,-0.03 0,-0.1 0,-0.13 0,-77.26 -62.65,-139.91 -139.91,-139.91 0,0 0,0 0,0l-284.95 0.01 0 706.78"/>
  <path class="fil0 str15" d="M1704.27 7205.67l192.41 0c77.28,-0.09 139.91,-62.78 139.91,-140.06 0,0 0,0 0,0l0 -73.37c0,-0.03 0,-0.1 0,-0.13 0,-77.26 -62.65,-139.91 -139.91,-139.91 0,0 0,0 0,0l-284.95 0.01 0 706.78"/>
  <path class="fil0 str16" d="M1704.27 7205.67l192.41 0c77.28,-0.09 139.91,-62.78 139.91,-140.06 0,0 0,0 0,0l0 -73.37c0,-0.03 0,-0.1 0,-0.13 0,-77.26 -62.65,-139.91 -139.91,-139.91 0,0 0,0 0,0l-284.95 0.01 0 706.78"/>
  <path class="fil0 str17" d="M1704.27 7205.67l192.41 0c77.28,-0.09 139.91,-62.78 139.91,-140.06 0,0 0,0 0,0l0 -73.37c0,-0.03 0,-0.1 0,-0.13 0,-77.26 -62.65,-139.91 -139.91,-139.91 0,0 0,0 0,0l-284.95 0.01 0 706.78"/>
  <path class="fil0 str18" d="M1704.27 7205.67l192.41 0c77.28,-0.09 139.91,-62.78 139.91,-140.06 0,0 0,0 0,0l0 -73.37c0,-0.03 0,-0.1 0,-0.13 0,-77.26 -62.65,-139.91 -139.91,-139.91 0,0 0,0 0,0l-284.95 0.01 0 706.78"/>
  <path class="fil0 str19" d="M1704.27 7205.67l192.41 0c77.28,-0.09 139.91,-62.78 139.91,-140.06 0,0 0,0 0,0l0 -73.37c0,-0.03 0,-0.1 0,-0.13 0,-77.26 -62.65,-139.91 -139.91,-139.91 0,0 0,0 0,0l-284.95 0.01 0 706.78"/>
  <g style="clip-path:url(#id9)">
   <image x="2189.89" y="5974.41" width="2165.63" height="2454.38" xlink:href="paper_Images\paper_ImgID10.png"/>
  </g>
  <path class="fil1 str12" d="M3156.15 7205.67l192.42 0c77.27,-0.09 139.9,-62.78 139.9,-140.06 0,0 0,0 0,0l0 -73.37c0.01,-0.03 0.01,-0.1 0.01,-0.13 0,-77.26 -62.65,-139.91 -139.91,-139.91 0,0 0,0 0,0l-284.95 0.01 0 706.78"/>
  <path class="fil4 str13" d="M3156.15 7205.67l192.42 0c77.27,-0.09 139.9,-62.78 139.9,-140.06 0,0 0,0 0,0l0 -73.37c0.01,-0.03 0.01,-0.1 0.01,-0.13 0,-77.26 -62.65,-139.91 -139.91,-139.91 0,0 0,0 0,0l-284.95 0.01 0 706.78"/>
  <path class="fil3 str14" d="M3156.15 7205.67l192.42 0c77.27,-0.09 139.9,-62.78 139.9,-140.06 0,0 0,0 0,0l0 -73.37c0.01,-0.03 0.01,-0.1 0.01,-0.13 0,-77.26 -62.65,-139.91 -139.91,-139.91 0,0 0,0 0,0l-284.95 0.01 0 706.78"/>
  <path class="fil0 str15" d="M3156.15 7205.67l192.42 0c77.27,-0.09 139.9,-62.78 139.9,-140.06 0,0 0,0 0,0l0 -73.37c0.01,-0.03 0.01,-0.1 0.01,-0.13 0,-77.26 -62.65,-139.91 -139.91,-139.91 0,0 0,0 0,0l-284.95 0.01 0 706.78"/>
  <path class="fil0 str16" d="M3156.15 7205.67l192.42 0c77.27,-0.09 139.9,-62.78 139.9,-140.06 0,0 0,0 0,0l0 -73.37c0.01,-0.03 0.01,-0.1 0.01,-0.13 0,-77.26 -62.65,-139.91 -139.91,-139.91 0,0 0,0 0,0l-284.95 0.01 0 706.78"/>
  <path class="fil0 str17" d="M3156.15 7205.67l192.42 0c77.27,-0.09 139.9,-62.78 139.9,-140.06 0,0 0,0 0,0l0 -73.37c0.01,-0.03 0.01,-0.1 0.01,-0.13 0,-77.26 -62.65,-139.91 -139.91,-139.91 0,0 0,0 0,0l-284.95 0.01 0 706.78"/>
  <path class="fil0 str18" d="M3156.15 7205.67l192.42 0c77.27,-0.09 139.9,-62.78 139.9,-140.06 0,0 0,0 0,0l0 -73.37c0.01,-0.03 0.01,-0.1 0.01,-0.13 0,-77.26 -62.65,-139.91 -139.91,-139.91 0,0 0,0 0,0l-284.95 0.01 0 706.78"/>
  <path class="fil0 str19" d="M3156.15 7205.67l192.42 0c77.27,-0.09 139.9,-62.78 139.9,-140.06 0,0 0,0 0,0l0 -73.37c0.01,-0.03 0.01,-0.1 0.01,-0.13 0,-77.26 -62.65,-139.91 -139.91,-139.91 0,0 0,0 0,0l-284.95 0.01 0 706.78"/>
  <g style="clip-path:url(#id10)">
   <image x="2911.77" y="5974.41" width="2178.75" height="2454.38" xlink:href="paper_Images\paper_ImgID11.png"/>
  </g>
  <polyline class="fil0 str11" points="4214.16,6852.21 3789.57,6852.21 3789.57,7558.99 4214.55,7558.99 "/>
  <line class="fil0 str11" x1="3882.75" y1="7205.67" x2="4125.83" y2= "7205.67" />
  <g id="_3010871182512">
   <polyline class="fil1 str12" points="4214.16,6852.21 3789.57,6852.21 3789.57,7558.99 4214.55,7558.99 "/>
   <line class="fil1 str12" x1="3882.75" y1="7205.67" x2="4125.83" y2= "7205.67" />
  </g>
  <g id="_3010871184000">
   <polyline class="fil4 str13" points="4214.16,6852.21 3789.57,6852.21 3789.57,7558.99 4214.55,7558.99 "/>
   <line class="fil4 str13" x1="3882.75" y1="7205.67" x2="4125.83" y2= "7205.67" />
  </g>
  <g id="_3010871183616">
   <polyline class="fil5 str20" points="4214.16,6852.21 3789.57,6852.21 3789.57,7558.99 4214.55,7558.99 "/>
   <line class="fil3 str14" x1="3882.75" y1="7205.67" x2="4125.83" y2= "7205.67" />
  </g>
  <polyline class="fil0 str15" points="4214.16,6852.21 3789.57,6852.21 3789.57,7558.99 4214.55,7558.99 "/>
  <line class="fil0 str15" x1="3882.75" y1="7205.67" x2="4125.83" y2= "7205.67" />
  <polyline class="fil0 str16" points="4214.16,6852.21 3789.57,6852.21 3789.57,7558.99 4214.55,7558.99 "/>
  <line class="fil0 str16" x1="3882.75" y1="7205.67" x2="4125.83" y2= "7205.67" />
  <polyline class="fil0 str17" points="4214.16,6852.21 3789.57,6852.21 3789.57,7558.99 4214.55,7558.99 "/>
  <line class="fil0 str17" x1="3882.75" y1="7205.67" x2="4125.83" y2= "7205.67" />
  <polyline class="fil0 str18" points="4214.16,6852.21 3789.57,6852.21 3789.57,7558.99 4214.55,7558.99 "/>
  <line class="fil0 str18" x1="3882.75" y1="7205.67" x2="4125.83" y2= "7205.67" />
  <polyline class="fil0 str19" points="4214.16,6852.21 3789.57,6852.21 3789.57,7558.99 4214.55,7558.99 "/>
  <line class="fil0 str19" x1="3882.75" y1="7205.67" x2="4125.83" y2= "7205.67" />
  <g style="clip-path:url(#id11)">
   <image x="1454.89" y="5974.41" width="2165.63" height="2454.38" xlink:href="paper_Images\paper_ImgID12.png"/>
  </g>
  <path class="fil0 str11" d="M2325.08 7558.99l0 -566.74c0,-0.01 0,-0.01 0,-0.01 0,-77.33 62.71,-140.04 140.04,-140.04 0.12,0 0.27,0 0.39,0l144.38 0.01c77.33,-0.01 140.04,62.7 140.04,140.03l0 566.74"/>
  <line class="fil0 str11" x1="2417.61" y1="7205.67" x2="2659.11" y2= "7205.67" />
  <g id="_3010871172960">
   <path class="fil1 str12" d="M2325.08 7558.99l0 -566.74c0,-0.01 0,-0.01 0,-0.01 0,-77.33 62.71,-140.04 140.04,-140.04 0.12,0 0.27,0 0.39,0l144.38 0.01c77.33,-0.01 140.04,62.7 140.04,140.03l0 566.74"/>
   <line class="fil1 str12" x1="2417.61" y1="7205.67" x2="2659.11" y2= "7205.67" />
  </g>
  <g id="_3010871170320">
   <path class="fil2 str21" d="M2325.08 7558.99l0 -566.74c0,-0.01 0,-0.01 0,-0.01 0,-77.33 62.71,-140.04 140.04,-140.04 0.12,0 0.27,0 0.39,0l144.38 0.01c77.33,-0.01 140.04,62.7 140.04,140.03l0 566.74"/>
   <line class="fil4 str13" x1="2417.61" y1="7205.67" x2="2659.11" y2= "7205.67" />
  </g>
  <g id="_3010871170224">
   <path class="fil5 str20" d="M2325.08 7558.99l0 -566.74c0,-0.01 0,-0.01 0,-0.01 0,-77.33 62.71,-140.04 140.04,-140.04 0.12,0 0.27,0 0.39,0l144.38 0.01c77.33,-0.01 140.04,62.7 140.04,140.03l0 566.74"/>
   <line class="fil3 str14" x1="2417.61" y1="7205.67" x2="2659.11" y2= "7205.67" />
  </g>
  <path class="fil0 str15" d="M2325.08 7558.99l0 -566.74c0,-0.01 0,-0.01 0,-0.01 0,-77.33 62.71,-140.04 140.04,-140.04 0.12,0 0.27,0 0.39,0l144.38 0.01c77.33,-0.01 140.04,62.7 140.04,140.03l0 566.74"/>
  <line class="fil0 str15" x1="2417.61" y1="7205.67" x2="2659.11" y2= "7205.67" />
  <path class="fil0 str16" d="M2325.08 7558.99l0 -566.74c0,-0.01 0,-0.01 0,-0.01 0,-77.33 62.71,-140.04 140.04,-140.04 0.12,0 0.27,0 0.39,0l144.38 0.01c77.33,-0.01 140.04,62.7 140.04,140.03l0 566.74"/>
  <line class="fil0 str16" x1="2417.61" y1="7205.67" x2="2659.11" y2= "7205.67" />
  <path class="fil0 str17" d="M2325.08 7558.99l0 -566.74c0,-0.01 0,-0.01 0,-0.01 0,-77.33 62.71,-140.04 140.04,-140.04 0.12,0 0.27,0 0.39,0l144.38 0.01c77.33,-0.01 140.04,62.7 140.04,140.03l0 566.74"/>
  <line class="fil0 str17" x1="2417.61" y1="7205.67" x2="2659.11" y2= "7205.67" />
  <path class="fil0 str18" d="M2325.08 7558.99l0 -566.74c0,-0.01 0,-0.01 0,-0.01 0,-77.33 62.71,-140.04 140.04,-140.04 0.12,0 0.27,0 0.39,0l144.38 0.01c77.33,-0.01 140.04,62.7 140.04,140.03l0 566.74"/>
  <line class="fil0 str18" x1="2417.61" y1="7205.67" x2="2659.11" y2= "7205.67" />
  <path class="fil0 str19" d="M2325.08 7558.99l0 -566.74c0,-0.01 0,-0.01 0,-0.01 0,-77.33 62.71,-140.04 140.04,-140.04 0.12,0 0.27,0 0.39,0l144.38 0.01c77.33,-0.01 140.04,62.7 140.04,140.03l0 566.74"/>
  <line class="fil0 str19" x1="2417.61" y1="7205.67" x2="2659.11" y2= "7205.67" />
 </g>
</svg>
