<?xml version="1.0" encoding="UTF-8"?>
<!DOCTYPE svg PUBLIC "-//W3C//DTD SVG 1.1//EN" "http://www.w3.org/Graphics/SVG/1.1/DTD/svg11.dtd">
<!-- Creator: CorelDRAW 2021 (64-Bit Deneme Sürümü) -->
<svg xmlns="http://www.w3.org/2000/svg" xml:space="preserve" width="67.7358mm" height="84.6666mm" version="1.1" style="shape-rendering:geometricPrecision; text-rendering:geometricPrecision; image-rendering:optimizeQuality; fill-rule:evenodd; clip-rule:evenodd"
viewBox="0 0 6773.58 8466.66"
 xmlns:xlink="http://www.w3.org/1999/xlink"
 xmlns:xodm="http://www.corel.com/coreldraw/odm/2003">
 <defs>
  <style type="text/css">
   <![CDATA[
    .str3 {stroke:#FF0BA4;stroke-width:170.63;stroke-linecap:round;stroke-linejoin:round;stroke-miterlimit:22.9256;stroke-opacity:0.039216}
    .str4 {stroke:#FF0BA4;stroke-width:136.89;stroke-linecap:round;stroke-linejoin:round;stroke-miterlimit:22.9256;stroke-opacity:0.062745}
    .str15 {stroke:#FF0BA4;stroke-width:213.81;stroke-linecap:round;stroke-linejoin:round;stroke-miterlimit:22.9256;stroke-opacity:0.062745}
    .str6 {stroke:#FF0BA4;stroke-width:80.46;stroke-linecap:round;stroke-linejoin:round;stroke-miterlimit:22.9256;stroke-opacity:0.090196}
    .str14 {stroke:#FF0BA4;stroke-width:251.61;stroke-linecap:round;stroke-linejoin:round;stroke-miterlimit:22.9256;stroke-opacity:0.200000}
    .str2 {stroke:#FF0BA4;stroke-width:170.63;stroke-linecap:round;stroke-linejoin:round;stroke-miterlimit:22.9256;stroke-opacity:0.200000}
    .str5 {stroke:#FF0BA4;stroke-width:136.89;stroke-linecap:round;stroke-linejoin:round;stroke-miterlimit:22.9256;stroke-opacity:0.250980}
    .str16 {stroke:#FF0BA4;stroke-width:125.74;stroke-linecap:round;stroke-linejoin:round;stroke-miterlimit:22.9256;stroke-opacity:0.301961}
    .str7 {stroke:#FF0BA4;stroke-width:80.46;stroke-linecap:round;stroke-linejoin:round;stroke-miterlimit:22.9256;stroke-opacity:0.301961}
    .str0 {stroke:#231F20;stroke-width:3.81;stroke-miterlimit:22.9256}
    .str1 {stroke:#333333;stroke-width:158.81;stroke-linecap:round;stroke-linejoin:round;stroke-miterlimit:22.9256}
    .str8 {stroke:#FF36B5;stroke-width:112.74;stroke-linecap:round;stroke-linejoin:round;stroke-miterlimit:22.9256}
    .str18 {stroke:#FF55C4;stroke-width:138.34;stroke-linecap:round;stroke-linejoin:round;stroke-miterlimit:22.9256}
    .str10 {stroke:#FF6FD4;stroke-width:64.44;stroke-linecap:round;stroke-linejoin:round;stroke-miterlimit:22.9256}
    .str12 {stroke:#FFBFF7;stroke-width:16.14;stroke-linecap:round;stroke-linejoin:round;stroke-miterlimit:22.9256}
    .str19 {stroke:#FF6FD4;stroke-width:100.67;stroke-linecap:round;stroke-linejoin:round;stroke-miterlimit:22.9256}
    .str13 {stroke:#333333;stroke-width:246.75;stroke-linecap:round;stroke-linejoin:round;stroke-miterlimit:22.9256}
    .str20 {stroke:#FF88E3;stroke-width:62.87;stroke-linecap:round;stroke-linejoin:round;stroke-miterlimit:22.9256}
    .str9 {stroke:#FF55C4;stroke-width:88.59;stroke-linecap:round;stroke-linejoin:round;stroke-miterlimit:22.9256}
    .str11 {stroke:#FF88E3;stroke-width:40.29;stroke-linecap:round;stroke-linejoin:round;stroke-miterlimit:22.9256}
    .str17 {stroke:#FF36B5;stroke-width:176.14;stroke-linecap:round;stroke-linejoin:round;stroke-miterlimit:22.9256}
    .str21 {stroke:#FFBFF7;stroke-width:25.2;stroke-linecap:round;stroke-linejoin:round;stroke-miterlimit:22.9256}
    .fil0 {fill:none;fill-rule:nonzero}
    .fil2 {fill:none;fill-rule:nonzero}
    .fil3 {fill:none;fill-rule:nonzero}
    .fil5 {fill:none;fill-rule:nonzero}
    .fil1 {fill:none;fill-rule:nonzero}
    .fil4 {fill:none;fill-rule:nonzero}
    .fil6 {fill:none;fill-rule:nonzero}
   ]]>
  </style>
   <clipPath id="id0">
    <rect x="2091.39" y="6608.53" width="3123.75" height="1036.87"/>
   </clipPath>
   <clipPath id="id1">
    <rect x="2091.39" y="6608.53" width="748.12" height="1036.87"/>
   </clipPath>
   <clipPath id="id2">
    <rect x="2800.14" y="6608.53" width="984.37" height="1036.87"/>
   </clipPath>
   <clipPath id="id3">
    <rect x="4467.01" y="6608.53" width="748.13" height="1036.87"/>
   </clipPath>
   <clipPath id="id4">
    <rect x="3745.14" y="6608.53" width="761.25" height="1036.87"/>
   </clipPath>
   <clipPath id="id5">
    <rect x="870.76" y="5387.9" width="2821.88" height="3097.5"/>
   </clipPath>
   <clipPath id="id6">
    <rect x="1579.51" y="5387.9" width="3045" height="3097.5"/>
   </clipPath>
   <clipPath id="id7">
    <rect x="3246.39" y="5387.9" width="2821.87" height="3097.5"/>
   </clipPath>
   <clipPath id="id8">
    <rect x="2537.64" y="5387.9" width="2808.75" height="3097.5"/>
   </clipPath>
   <clipPath id="id9">
    <rect x="1735.79" y="1686.88" width="3858.75" height="4121.25"/>
   </clipPath>
   <clipPath id="id10">
    <rect x="55.79" y="6.88" width="6693.75" height="6956.25"/>
   </clipPath>
 </defs>
 <g id="Katman_x0020_1">
  <metadata id="CorelCorpID_0Corel-Layer"/>
  <g style="clip-path:url(#id0)">
   <image x="2091.39" y="6608.53" width="3123.75" height="1036.87" xlink:href="rock_Images\rock_ImgID1.png"/>
  </g>
  <path class="fil0 str0" d="M2159.9 6939.01l192.41 0c77.34,-0.01 140.05,-62.72 140.05,-140.05l0 -73.5c-0.06,-77.28 -62.75,-139.91 -140.03,-139.91 0,0 0,0 0,0l-284.96 0.01 0 706.78"/>
  <line class="fil0 str0" x1="2339.98" y1="7038.89" x2="2492.36" y2= "7292.34" />
  <path class="fil0 str0" d="M3348.63 7186.03c54.6,-59.98 84.93,-138.22 84.93,-219.32 0,-0.12 0,-0.28 0,-0.4l0 -53.42c0,-180.4 -146.29,-326.69 -326.68,-326.69l-0.01 0.01c-180.38,-0.01 -326.67,146.28 -326.67,326.67l0 53.42c0,180.39 146.29,326.68 326.68,326.68l-0.01 0.01c0.17,0 0.37,0 0.53,0 56.85,0 112.88,-15 162.11,-43.33"/>
  <line class="fil0 str0" x1="4443.26" y1="6585.56" x2="4443.26" y2= "7292.34" />
  <line class="fil0 str0" x1="4869.56" y1="6585.56" x2="4541.17" y2= "6939.01" />
  <line class="fil0 str0" x1="4541.17" y1="6939.01" x2="4869.56" y2= "7292.34" />
  <path class="fil0 str0" d="M4152.67 7152.29c0.01,-0.01 0.01,-0.01 0.01,-0.01 0,77.28 -62.63,139.97 -139.9,140.04l-144.4 0.02c-77.32,-0.02 -140.03,-62.73 -140.03,-140.06l-0.01 -426.81c0.01,-0.01 0.01,-0.01 0.01,-0.01 0,-77.26 62.65,-139.91 139.91,-139.91 0.03,0 0.1,0 0.14,0l144.36 0.01c77.27,-0.01 139.92,62.64 139.92,139.9"/>
  <path class="fil0 str1" d="M2159.9 6939.01l192.41 0c77.34,-0.01 140.05,-62.72 140.05,-140.05l0 -73.5c-0.06,-77.28 -62.75,-139.91 -140.03,-139.91 0,0 0,0 0,0l-284.96 0.01 0 706.78"/>
  <line class="fil0 str1" x1="2339.98" y1="7038.89" x2="2492.36" y2= "7292.34" />
  <path class="fil0 str1" d="M2159.9 6939.01l192.41 0c77.34,-0.01 140.05,-62.72 140.05,-140.05l0 -73.5c-0.06,-77.28 -62.75,-139.91 -140.03,-139.91 0,0 0,0 0,0l-284.96 0.01 0 706.78"/>
  <line class="fil0 str1" x1="2339.98" y1="7038.89" x2="2492.36" y2= "7292.34" />
  <path class="fil0 str1" d="M2159.9 6939.01l192.41 0c77.34,-0.01 140.05,-62.72 140.05,-140.05l0 -73.5c-0.06,-77.28 -62.75,-139.91 -140.03,-139.91 0,0 0,0 0,0l-284.96 0.01 0 706.78"/>
  <line class="fil0 str1" x1="2339.98" y1="7038.89" x2="2492.36" y2= "7292.34" />
  <path class="fil0 str1" d="M3348.63 7186.03c54.6,-59.98 84.93,-138.22 84.93,-219.32 0,-0.12 0,-0.28 0,-0.4l0 -53.42c0,-180.4 -146.29,-326.69 -326.68,-326.69l-0.01 0.01c-180.38,-0.01 -326.67,146.28 -326.67,326.67l0 53.42c0,180.39 146.29,326.68 326.68,326.68l-0.01 0.01c0.17,0 0.37,0 0.53,0 56.85,0 112.88,-15 162.11,-43.33"/>
  <line class="fil0 str1" x1="4443.26" y1="6585.56" x2="4443.26" y2= "7292.34" />
  <line class="fil0 str1" x1="4869.56" y1="6585.56" x2="4541.17" y2= "6939.01" />
  <line class="fil0 str1" x1="4541.17" y1="6939.01" x2="4869.56" y2= "7292.34" />
  <line class="fil0 str1" x1="4443.26" y1="6585.56" x2="4443.26" y2= "7292.34" />
  <line class="fil0 str1" x1="4869.56" y1="6585.56" x2="4541.17" y2= "6939.01" />
  <line class="fil0 str1" x1="4541.17" y1="6939.01" x2="4869.56" y2= "7292.34" />
  <line class="fil0 str1" x1="4443.26" y1="6585.56" x2="4443.26" y2= "7292.34" />
  <line class="fil0 str1" x1="4869.56" y1="6585.56" x2="4541.17" y2= "6939.01" />
  <line class="fil0 str1" x1="4541.17" y1="6939.01" x2="4869.56" y2= "7292.34" />
  <path class="fil0 str1" d="M4152.67 7152.29c0.01,-0.01 0.01,-0.01 0.01,-0.01 0,77.28 -62.63,139.97 -139.9,140.04l-144.4 0.02c-77.32,-0.02 -140.03,-62.73 -140.03,-140.06l-0.01 -426.81c0.01,-0.01 0.01,-0.01 0.01,-0.01 0,-77.26 62.65,-139.91 139.91,-139.91 0.03,0 0.1,0 0.14,0l144.36 0.01c77.27,-0.01 139.92,62.64 139.92,139.9"/>
  <g style="clip-path:url(#id1)">
   <image x="2091.39" y="6608.53" width="748.12" height="1036.87" xlink:href="rock_Images\rock_ImgID2.png"/>
  </g>
  <path class="fil0 str1" d="M2159.9 6939.01l192.41 0c77.34,-0.01 140.05,-62.72 140.05,-140.05l0 -73.5c-0.06,-77.28 -62.75,-139.91 -140.03,-139.91 0,0 0,0 0,0l-284.96 0.01 0 706.78"/>
  <line class="fil0 str1" x1="2339.98" y1="7038.89" x2="2492.36" y2= "7292.34" />
  <g style="clip-path:url(#id2)">
   <image x="2800.14" y="6608.53" width="984.37" height="1036.87" xlink:href="rock_Images\rock_ImgID3.png"/>
  </g>
  <path class="fil0 str1" d="M3348.63 7186.03c54.6,-59.98 84.93,-138.22 84.93,-219.32 0,-0.12 0,-0.28 0,-0.4l0 -53.42c0,-180.4 -146.29,-326.69 -326.68,-326.69l-0.01 0.01c-180.38,-0.01 -326.67,146.28 -326.67,326.67l0 53.42c0,180.39 146.29,326.68 326.68,326.68l-0.01 0.01c0.17,0 0.37,0 0.53,0 56.85,0 112.88,-15 162.11,-43.33"/>
  <g style="clip-path:url(#id3)">
   <image x="4467.01" y="6608.53" width="748.13" height="1036.87" xlink:href="rock_Images\rock_ImgID4.png"/>
  </g>
  <line class="fil0 str1" x1="4443.26" y1="6585.56" x2="4443.26" y2= "7292.34" />
  <line class="fil0 str1" x1="4869.56" y1="6585.56" x2="4541.17" y2= "6939.01" />
  <line class="fil0 str1" x1="4541.17" y1="6939.01" x2="4869.56" y2= "7292.34" />
  <g style="clip-path:url(#id4)">
   <image x="3745.14" y="6608.53" width="761.25" height="1036.87" xlink:href="rock_Images\rock_ImgID5.png"/>
  </g>
  <path class="fil0 str1" d="M4152.67 7152.29c0.01,-0.01 0.01,-0.01 0.01,-0.01 0,77.28 -62.63,139.97 -139.9,140.04l-144.4 0.02c-77.32,-0.02 -140.03,-62.73 -140.03,-140.06l-0.01 -426.81c0.01,-0.01 0.01,-0.01 0.01,-0.01 0,-77.26 62.65,-139.91 139.91,-139.91 0.03,0 0.1,0 0.14,0l144.36 0.01c77.27,-0.01 139.92,62.64 139.92,139.9"/>
  <g style="clip-path:url(#id5)">
   <image x="870.76" y="5387.9" width="2821.88" height="3097.5" xlink:href="rock_Images\rock_ImgID6.png"/>
  </g>
  <g id="_3011431712240">
   <path class="fil1 str2" d="M2159.9 6939.01l192.41 0c77.34,-0.01 140.05,-62.72 140.05,-140.05l0 -73.5c-0.06,-77.28 -62.75,-139.91 -140.03,-139.91 0,0 0,0 0,0l-284.96 0.01 0 706.78"/>
   <line class="fil2 str3" x1="2339.98" y1="7038.89" x2="2492.36" y2= "7292.34" />
  </g>
  <g id="_3011431714784">
   <path class="fil3 str4" d="M2159.9 6939.01l192.41 0c77.34,-0.01 140.05,-62.72 140.05,-140.05l0 -73.5c-0.06,-77.28 -62.75,-139.91 -140.03,-139.91 0,0 0,0 0,0l-284.96 0.01 0 706.78"/>
   <line class="fil4 str5" x1="2339.98" y1="7038.89" x2="2492.36" y2= "7292.34" />
  </g>
  <g id="_3011431713728">
   <path class="fil5 str6" d="M2159.9 6939.01l192.41 0c77.34,-0.01 140.05,-62.72 140.05,-140.05l0 -73.5c-0.06,-77.28 -62.75,-139.91 -140.03,-139.91 0,0 0,0 0,0l-284.96 0.01 0 706.78"/>
   <line class="fil6 str7" x1="2339.98" y1="7038.89" x2="2492.36" y2= "7292.34" />
  </g>
  <path class="fil0 str8" d="M2159.9 6939.01l192.41 0c77.34,-0.01 140.05,-62.72 140.05,-140.05l0 -73.5c-0.06,-77.28 -62.75,-139.91 -140.03,-139.91 0,0 0,0 0,0l-284.96 0.01 0 706.78"/>
  <line class="fil0 str8" x1="2339.98" y1="7038.89" x2="2492.36" y2= "7292.34" />
  <path class="fil0 str9" d="M2159.9 6939.01l192.41 0c77.34,-0.01 140.05,-62.72 140.05,-140.05l0 -73.5c-0.06,-77.28 -62.75,-139.91 -140.03,-139.91 0,0 0,0 0,0l-284.96 0.01 0 706.78"/>
  <line class="fil0 str9" x1="2339.98" y1="7038.89" x2="2492.36" y2= "7292.34" />
  <path class="fil0 str10" d="M2159.9 6939.01l192.41 0c77.34,-0.01 140.05,-62.72 140.05,-140.05l0 -73.5c-0.06,-77.28 -62.75,-139.91 -140.03,-139.91 0,0 0,0 0,0l-284.96 0.01 0 706.78"/>
  <line class="fil0 str10" x1="2339.98" y1="7038.89" x2="2492.36" y2= "7292.34" />
  <path class="fil0 str11" d="M2159.9 6939.01l192.41 0c77.34,-0.01 140.05,-62.72 140.05,-140.05l0 -73.5c-0.06,-77.28 -62.75,-139.91 -140.03,-139.91 0,0 0,0 0,0l-284.96 0.01 0 706.78"/>
  <line class="fil0 str11" x1="2339.98" y1="7038.89" x2="2492.36" y2= "7292.34" />
  <path class="fil0 str12" d="M2159.9 6939.01l192.41 0c77.34,-0.01 140.05,-62.72 140.05,-140.05l0 -73.5c-0.06,-77.28 -62.75,-139.91 -140.03,-139.91 0,0 0,0 0,0l-284.96 0.01 0 706.78"/>
  <line class="fil0 str12" x1="2339.98" y1="7038.89" x2="2492.36" y2= "7292.34" />
  <g style="clip-path:url(#id6)">
   <image x="1579.51" y="5387.9" width="3045" height="3097.5" xlink:href="rock_Images\rock_ImgID7.png"/>
  </g>
  <path class="fil1 str2" d="M3348.63 7186.03c54.6,-59.98 84.93,-138.22 84.93,-219.32 0,-0.12 0,-0.28 0,-0.4l0 -53.42c0,-180.4 -146.29,-326.69 -326.68,-326.69l-0.01 0.01c-180.38,-0.01 -326.67,146.28 -326.67,326.67l0 53.42c0,180.39 146.29,326.68 326.68,326.68l-0.01 0.01c0.17,0 0.37,0 0.53,0 56.85,0 112.88,-15 162.11,-43.33"/>
  <path class="fil4 str5" d="M3348.63 7186.03c54.6,-59.98 84.93,-138.22 84.93,-219.32 0,-0.12 0,-0.28 0,-0.4l0 -53.42c0,-180.4 -146.29,-326.69 -326.68,-326.69l-0.01 0.01c-180.38,-0.01 -326.67,146.28 -326.67,326.67l0 53.42c0,180.39 146.29,326.68 326.68,326.68l-0.01 0.01c0.17,0 0.37,0 0.53,0 56.85,0 112.88,-15 162.11,-43.33"/>
  <path class="fil6 str7" d="M3348.63 7186.03c54.6,-59.98 84.93,-138.22 84.93,-219.32 0,-0.12 0,-0.28 0,-0.4l0 -53.42c0,-180.4 -146.29,-326.69 -326.68,-326.69l-0.01 0.01c-180.38,-0.01 -326.67,146.28 -326.67,326.67l0 53.42c0,180.39 146.29,326.68 326.68,326.68l-0.01 0.01c0.17,0 0.37,0 0.53,0 56.85,0 112.88,-15 162.11,-43.33"/>
  <path class="fil0 str8" d="M3348.63 7186.03c54.6,-59.98 84.93,-138.22 84.93,-219.32 0,-0.12 0,-0.28 0,-0.4l0 -53.42c0,-180.4 -146.29,-326.69 -326.68,-326.69l-0.01 0.01c-180.38,-0.01 -326.67,146.28 -326.67,326.67l0 53.42c0,180.39 146.29,326.68 326.68,326.68l-0.01 0.01c0.17,0 0.37,0 0.53,0 56.85,0 112.88,-15 162.11,-43.33"/>
  <path class="fil0 str9" d="M3348.63 7186.03c54.6,-59.98 84.93,-138.22 84.93,-219.32 0,-0.12 0,-0.28 0,-0.4l0 -53.42c0,-180.4 -146.29,-326.69 -326.68,-326.69l-0.01 0.01c-180.38,-0.01 -326.67,146.28 -326.67,326.67l0 53.42c0,180.39 146.29,326.68 326.68,326.68l-0.01 0.01c0.17,0 0.37,0 0.53,0 56.85,0 112.88,-15 162.11,-43.33"/>
  <path class="fil0 str10" d="M3348.63 7186.03c54.6,-59.98 84.93,-138.22 84.93,-219.32 0,-0.12 0,-0.28 0,-0.4l0 -53.42c0,-180.4 -146.29,-326.69 -326.68,-326.69l-0.01 0.01c-180.38,-0.01 -326.67,146.28 -326.67,326.67l0 53.42c0,180.39 146.29,326.68 326.68,326.68l-0.01 0.01c0.17,0 0.37,0 0.53,0 56.85,0 112.88,-15 162.11,-43.33"/>
  <path class="fil0 str11" d="M3348.63 7186.03c54.6,-59.98 84.93,-138.22 84.93,-219.32 0,-0.12 0,-0.28 0,-0.4l0 -53.42c0,-180.4 -146.29,-326.69 -326.68,-326.69l-0.01 0.01c-180.38,-0.01 -326.67,146.28 -326.67,326.67l0 53.42c0,180.39 146.29,326.68 326.68,326.68l-0.01 0.01c0.17,0 0.37,0 0.53,0 56.85,0 112.88,-15 162.11,-43.33"/>
  <path class="fil0 str12" d="M3348.63 7186.03c54.6,-59.98 84.93,-138.22 84.93,-219.32 0,-0.12 0,-0.28 0,-0.4l0 -53.42c0,-180.4 -146.29,-326.69 -326.68,-326.69l-0.01 0.01c-180.38,-0.01 -326.67,146.28 -326.67,326.67l0 53.42c0,180.39 146.29,326.68 326.68,326.68l-0.01 0.01c0.17,0 0.37,0 0.53,0 56.85,0 112.88,-15 162.11,-43.33"/>
  <g style="clip-path:url(#id7)">
   <image x="3246.39" y="5387.9" width="2821.87" height="3097.5" xlink:href="rock_Images\rock_ImgID8.png"/>
  </g>
  <g id="_3011746500128">
   <line class="fil1 str2" x1="4443.26" y1="6585.56" x2="4443.26" y2= "7292.34" />
   <line class="fil1 str2" x1="4869.56" y1="6585.56" x2="4541.17" y2= "6939.01" />
   <line class="fil1 str2" x1="4541.17" y1="6939.01" x2="4869.56" y2= "7292.34" />
  </g>
  <g id="_3011746499264">
   <line class="fil3 str4" x1="4443.26" y1="6585.56" x2="4443.26" y2= "7292.34" />
   <line class="fil4 str5" x1="4869.56" y1="6585.56" x2="4541.17" y2= "6939.01" />
   <line class="fil4 str5" x1="4541.17" y1="6939.01" x2="4869.56" y2= "7292.34" />
  </g>
  <g id="_3011746499408">
   <line class="fil6 str7" x1="4443.26" y1="6585.56" x2="4443.26" y2= "7292.34" />
   <line class="fil5 str6" x1="4869.56" y1="6585.56" x2="4541.17" y2= "6939.01" />
   <line class="fil6 str7" x1="4541.17" y1="6939.01" x2="4869.56" y2= "7292.34" />
  </g>
  <line class="fil0 str8" x1="4443.26" y1="6585.56" x2="4443.26" y2= "7292.34" />
  <line class="fil0 str8" x1="4869.56" y1="6585.56" x2="4541.17" y2= "6939.01" />
  <line class="fil0 str8" x1="4541.17" y1="6939.01" x2="4869.56" y2= "7292.34" />
  <line class="fil0 str9" x1="4443.26" y1="6585.56" x2="4443.26" y2= "7292.34" />
  <line class="fil0 str9" x1="4869.56" y1="6585.56" x2="4541.17" y2= "6939.01" />
  <line class="fil0 str9" x1="4541.17" y1="6939.01" x2="4869.56" y2= "7292.34" />
  <line class="fil0 str10" x1="4443.26" y1="6585.56" x2="4443.26" y2= "7292.34" />
  <line class="fil0 str10" x1="4869.56" y1="6585.56" x2="4541.17" y2= "6939.01" />
  <line class="fil0 str10" x1="4541.17" y1="6939.01" x2="4869.56" y2= "7292.34" />
  <line class="fil0 str11" x1="4443.26" y1="6585.56" x2="4443.26" y2= "7292.34" />
  <line class="fil0 str11" x1="4869.56" y1="6585.56" x2="4541.17" y2= "6939.01" />
  <line class="fil0 str11" x1="4541.17" y1="6939.01" x2="4869.56" y2= "7292.34" />
  <line class="fil0 str12" x1="4443.26" y1="6585.56" x2="4443.26" y2= "7292.34" />
  <line class="fil0 str12" x1="4869.56" y1="6585.56" x2="4541.17" y2= "6939.01" />
  <line class="fil0 str12" x1="4541.17" y1="6939.01" x2="4869.56" y2= "7292.34" />
  <g style="clip-path:url(#id8)">
   <image x="2537.64" y="5387.9" width="2808.75" height="3097.5" xlink:href="rock_Images\rock_ImgID9.png"/>
  </g>
  <path class="fil1 str2" d="M4152.67 7152.29c0.01,-0.01 0.01,-0.01 0.01,-0.01 0,77.28 -62.63,139.97 -139.9,140.04l-144.4 0.02c-77.32,-0.02 -140.03,-62.73 -140.03,-140.06l-0.01 -426.81c0.01,-0.01 0.01,-0.01 0.01,-0.01 0,-77.26 62.65,-139.91 139.91,-139.91 0.03,0 0.1,0 0.14,0l144.36 0.01c77.27,-0.01 139.92,62.64 139.92,139.9"/>
  <path class="fil4 str5" d="M4152.67 7152.29c0.01,-0.01 0.01,-0.01 0.01,-0.01 0,77.28 -62.63,139.97 -139.9,140.04l-144.4 0.02c-77.32,-0.02 -140.03,-62.73 -140.03,-140.06l-0.01 -426.81c0.01,-0.01 0.01,-0.01 0.01,-0.01 0,-77.26 62.65,-139.91 139.91,-139.91 0.03,0 0.1,0 0.14,0l144.36 0.01c77.27,-0.01 139.92,62.64 139.92,139.9"/>
  <path class="fil6 str7" d="M4152.67 7152.29c0.01,-0.01 0.01,-0.01 0.01,-0.01 0,77.28 -62.63,139.97 -139.9,140.04l-144.4 0.02c-77.32,-0.02 -140.03,-62.73 -140.03,-140.06l-0.01 -426.81c0.01,-0.01 0.01,-0.01 0.01,-0.01 0,-77.26 62.65,-139.91 139.91,-139.91 0.03,0 0.1,0 0.14,0l144.36 0.01c77.27,-0.01 139.92,62.64 139.92,139.9"/>
  <path class="fil0 str8" d="M4152.67 7152.29c0.01,-0.01 0.01,-0.01 0.01,-0.01 0,77.28 -62.63,139.97 -139.9,140.04l-144.4 0.02c-77.32,-0.02 -140.03,-62.73 -140.03,-140.06l-0.01 -426.81c0.01,-0.01 0.01,-0.01 0.01,-0.01 0,-77.26 62.65,-139.91 139.91,-139.91 0.03,0 0.1,0 0.14,0l144.36 0.01c77.27,-0.01 139.92,62.64 139.92,139.9"/>
  <path class="fil0 str9" d="M4152.67 7152.29c0.01,-0.01 0.01,-0.01 0.01,-0.01 0,77.28 -62.63,139.97 -139.9,140.04l-144.4 0.02c-77.32,-0.02 -140.03,-62.73 -140.03,-140.06l-0.01 -426.81c0.01,-0.01 0.01,-0.01 0.01,-0.01 0,-77.26 62.65,-139.91 139.91,-139.91 0.03,0 0.1,0 0.14,0l144.36 0.01c77.27,-0.01 139.92,62.64 139.92,139.9"/>
  <path class="fil0 str10" d="M4152.67 7152.29c0.01,-0.01 0.01,-0.01 0.01,-0.01 0,77.28 -62.63,139.97 -139.9,140.04l-144.4 0.02c-77.32,-0.02 -140.03,-62.73 -140.03,-140.06l-0.01 -426.81c0.01,-0.01 0.01,-0.01 0.01,-0.01 0,-77.26 62.65,-139.91 139.91,-139.91 0.03,0 0.1,0 0.14,0l144.36 0.01c77.27,-0.01 139.92,62.64 139.92,139.9"/>
  <path class="fil0 str11" d="M4152.67 7152.29c0.01,-0.01 0.01,-0.01 0.01,-0.01 0,77.28 -62.63,139.97 -139.9,140.04l-144.4 0.02c-77.32,-0.02 -140.03,-62.73 -140.03,-140.06l-0.01 -426.81c0.01,-0.01 0.01,-0.01 0.01,-0.01 0,-77.26 62.65,-139.91 139.91,-139.91 0.03,0 0.1,0 0.14,0l144.36 0.01c77.27,-0.01 139.92,62.64 139.92,139.9"/>
  <path class="fil0 str12" d="M4152.67 7152.29c0.01,-0.01 0.01,-0.01 0.01,-0.01 0,77.28 -62.63,139.97 -139.9,140.04l-144.4 0.02c-77.32,-0.02 -140.03,-62.73 -140.03,-140.06l-0.01 -426.81c0.01,-0.01 0.01,-0.01 0.01,-0.01 0,-77.26 62.65,-139.91 139.91,-139.91 0.03,0 0.1,0 0.14,0l144.36 0.01c77.27,-0.01 139.92,62.64 139.92,139.9"/>
  <g style="clip-path:url(#id9)">
   <image x="1735.79" y="1686.88" width="3858.75" height="4121.25" xlink:href="rock_Images\rock_ImgID10.png"/>
  </g>
  <path class="fil0 str13" d="M2143.32 3502.72l0 0c-211.83,0 -383.63,-171.8 -383.63,-383.64l-0.01 -501.9c0.06,-211.81 171.85,-383.51 383.65,-383.51 0,0 0,0 0,0l-0.01 0c211.78,0 383.52,171.74 383.52,383.51l0 501.9c0,-0.01 0,0.13 0,0.13 0,211.77 -171.74,383.51 -383.51,383.51 0,0 0,0 0,0l-0.01 0zm3284.14 -318.02c-100.75,-276.83 -363.95,-461.06 -658.56,-461.06 -154.02,0 -304.02,50.91 -426.21,144.52l-1678.57 -0.03c-75.8,0 -137.28,61.48 -137.28,137.29l-0.01 85.83c0.02,335.86 272.38,608.22 608.23,608.22l832.9 0m-624.49 -1573.43l0 742.09m1525.52 238.09l0 -1011.55c0.03,-2.15 0.07,-4.55 0.07,-6.77 0,-193.29 -156.75,-350.04 -350.04,-350.04 -193.29,0 -350.04,156.75 -350.04,350.04 0,2.22 0.04,4.62 0.09,6.79l0 31.37c-0.03,-227.95 -184.88,-412.8 -412.81,-412.8 -227.93,0 -412.78,184.85 -412.78,412.78l0 -4.46c0,-225.47 -182.85,-408.32 -408.32,-408.32 -225.47,0 -408.32,182.85 -408.32,408.32l0 495.6c-3.82,-209 -174.49,-376.54 -383.57,-376.54 -209.08,0 -379.75,167.54 -383.59,376.57l0 1232.31c0,775.45 628.89,1404.34 1404.38,1404.34l194.11 0c930.67,-0.01 1685.13,-754.47 1685.13,-1685.04 0,-0.26 0,-0.86 0,-1.2 0,-169.89 -62.02,-334.06 -174.32,-461.43l0.01 0.03zm-525.66 -517.52l0 279.43m-210.65 831.34l0 0c-373.17,-0.01 -675.8,302.62 -675.8,675.79l0 199.76"/>
  <g style="clip-path:url(#id10)">
   <image x="55.79" y="6.88" width="6693.75" height="6956.25" xlink:href="rock_Images\rock_ImgID11.png"/>
  </g>
  <g id="_3011750988160">
   <path class="fil1 str14" d="M2143.32 3502.72l0 0c-211.83,0 -383.63,-171.8 -383.63,-383.64l-0.01 -501.9c0.06,-211.81 171.85,-383.51 383.65,-383.51 0,0 0,0 0,0l-0.01 0c211.78,0 383.52,171.74 383.52,383.51l0 501.9c0,-0.01 0,0.13 0,0.13 0,211.77 -171.74,383.51 -383.51,383.51 0,0 0,0 0,0l-0.01 0zm3284.14 -318.02c-100.75,-276.83 -363.95,-461.06 -658.56,-461.06 -154.02,0 -304.02,50.91 -426.21,144.52l-1678.57 -0.03c-75.8,0 -137.28,61.48 -137.28,137.29l-0.01 85.83c0.02,335.86 272.38,608.22 608.23,608.22l832.9 0m-624.49 -1573.43l0 742.09m1525.52 238.09l0 -1011.55c0.03,-2.15 0.07,-4.55 0.07,-6.77 0,-193.29 -156.75,-350.04 -350.04,-350.04 -193.29,0 -350.04,156.75 -350.04,350.04 0,2.22 0.04,4.62 0.09,6.79l0 31.37c-0.03,-227.95 -184.88,-412.8 -412.81,-412.8 -227.93,0 -412.78,184.85 -412.78,412.78l0 -4.46c0,-225.47 -182.85,-408.32 -408.32,-408.32 -225.47,0 -408.32,182.85 -408.32,408.32l0 495.6c-3.82,-209 -174.49,-376.54 -383.57,-376.54 -209.08,0 -379.75,167.54 -383.59,376.57l0 1232.31c0,775.45 628.89,1404.34 1404.38,1404.34l194.11 0c930.67,-0.01 1685.13,-754.47 1685.13,-1685.04 0,-0.26 0,-0.86 0,-1.2 0,-169.89 -62.02,-334.06 -174.32,-461.43l0.01 0.03zm-525.66 -517.52l0 279.43m-210.65 831.34l0 0c-373.17,-0.01 -675.8,302.62 -675.8,675.79l0 199.76"/>
  </g>
  <g id="_3011750988352">
   <path class="fil3 str15" d="M2143.32 3502.72l0 0c-211.83,0 -383.63,-171.8 -383.63,-383.64l-0.01 -501.9c0.06,-211.81 171.85,-383.51 383.65,-383.51 0,0 0,0 0,0l-0.01 0c211.78,0 383.52,171.74 383.52,383.51l0 501.9c0,-0.01 0,0.13 0,0.13 0,211.77 -171.74,383.51 -383.51,383.51 0,0 0,0 0,0l-0.01 0zm3284.14 -318.02c-100.75,-276.83 -363.95,-461.06 -658.56,-461.06 -154.02,0 -304.02,50.91 -426.21,144.52l-1678.57 -0.03c-75.8,0 -137.28,61.48 -137.28,137.29l-0.01 85.83c0.02,335.86 272.38,608.22 608.23,608.22l832.9 0m-624.49 -1573.43l0 742.09m1525.52 238.09l0 -1011.55c0.03,-2.15 0.07,-4.55 0.07,-6.77 0,-193.29 -156.75,-350.04 -350.04,-350.04 -193.29,0 -350.04,156.75 -350.04,350.04 0,2.22 0.04,4.62 0.09,6.79l0 31.37c-0.03,-227.95 -184.88,-412.8 -412.81,-412.8 -227.93,0 -412.78,184.85 -412.78,412.78l0 -4.46c0,-225.47 -182.85,-408.32 -408.32,-408.32 -225.47,0 -408.32,182.85 -408.32,408.32l0 495.6c-3.82,-209 -174.49,-376.54 -383.57,-376.54 -209.08,0 -379.75,167.54 -383.59,376.57l0 1232.31c0,775.45 628.89,1404.34 1404.38,1404.34l194.11 0c930.67,-0.01 1685.13,-754.47 1685.13,-1685.04 0,-0.26 0,-0.86 0,-1.2 0,-169.89 -62.02,-334.06 -174.32,-461.43l0.01 0.03zm-525.66 -517.52l0 279.43m-210.65 831.34l0 0c-373.17,-0.01 -675.8,302.62 -675.8,675.79l0 199.76"/>
  </g>
  <g id="_3011750986528">
   <path class="fil6 str16" d="M2143.32 3502.72l0 0c-211.83,0 -383.63,-171.8 -383.63,-383.64l-0.01 -501.9c0.06,-211.81 171.85,-383.51 383.65,-383.51 0,0 0,0 0,0l-0.01 0c211.78,0 383.52,171.74 383.52,383.51l0 501.9c0,-0.01 0,0.13 0,0.13 0,211.77 -171.74,383.51 -383.51,383.51 0,0 0,0 0,0l-0.01 0zm3284.14 -318.02c-100.75,-276.83 -363.95,-461.06 -658.56,-461.06 -154.02,0 -304.02,50.91 -426.21,144.52l-1678.57 -0.03c-75.8,0 -137.28,61.48 -137.28,137.29l-0.01 85.83c0.02,335.86 272.38,608.22 608.23,608.22l832.9 0m-624.49 -1573.43l0 742.09m1525.52 238.09l0 -1011.55c0.03,-2.15 0.07,-4.55 0.07,-6.77 0,-193.29 -156.75,-350.04 -350.04,-350.04 -193.29,0 -350.04,156.75 -350.04,350.04 0,2.22 0.04,4.62 0.09,6.79l0 31.37c-0.03,-227.95 -184.88,-412.8 -412.81,-412.8 -227.93,0 -412.78,184.85 -412.78,412.78l0 -4.46c0,-225.47 -182.85,-408.32 -408.32,-408.32 -225.47,0 -408.32,182.85 -408.32,408.32l0 495.6c-3.82,-209 -174.49,-376.54 -383.57,-376.54 -209.08,0 -379.75,167.54 -383.59,376.57l0 1232.31c0,775.45 628.89,1404.34 1404.38,1404.34l194.11 0c930.67,-0.01 1685.13,-754.47 1685.13,-1685.04 0,-0.26 0,-0.86 0,-1.2 0,-169.89 -62.02,-334.06 -174.32,-461.43l0.01 0.03zm-525.66 -517.52l0 279.43m-210.65 831.34l0 0c-373.17,-0.01 -675.8,302.62 -675.8,675.79l0 199.76"/>
  </g>
  <path class="fil0 str17" d="M2143.32 3502.72l0 0c-211.83,0 -383.63,-171.8 -383.63,-383.64l-0.01 -501.9c0.06,-211.81 171.85,-383.51 383.65,-383.51 0,0 0,0 0,0l-0.01 0c211.78,0 383.52,171.74 383.52,383.51l0 501.9c0,-0.01 0,0.13 0,0.13 0,211.77 -171.74,383.51 -383.51,383.51 0,0 0,0 0,0l-0.01 0zm3284.14 -318.02c-100.75,-276.83 -363.95,-461.06 -658.56,-461.06 -154.02,0 -304.02,50.91 -426.21,144.52l-1678.57 -0.03c-75.8,0 -137.28,61.48 -137.28,137.29l-0.01 85.83c0.02,335.86 272.38,608.22 608.23,608.22l832.9 0m-624.49 -1573.43l0 742.09m1525.52 238.09l0 -1011.55c0.03,-2.15 0.07,-4.55 0.07,-6.77 0,-193.29 -156.75,-350.04 -350.04,-350.04 -193.29,0 -350.04,156.75 -350.04,350.04 0,2.22 0.04,4.62 0.09,6.79l0 31.37c-0.03,-227.95 -184.88,-412.8 -412.81,-412.8 -227.93,0 -412.78,184.85 -412.78,412.78l0 -4.46c0,-225.47 -182.85,-408.32 -408.32,-408.32 -225.47,0 -408.32,182.85 -408.32,408.32l0 495.6c-3.82,-209 -174.49,-376.54 -383.57,-376.54 -209.08,0 -379.75,167.54 -383.59,376.57l0 1232.31c0,775.45 628.89,1404.34 1404.38,1404.34l194.11 0c930.67,-0.01 1685.13,-754.47 1685.13,-1685.04 0,-0.26 0,-0.86 0,-1.2 0,-169.89 -62.02,-334.06 -174.32,-461.43l0.01 0.03zm-525.66 -517.52l0 279.43m-210.65 831.34l0 0c-373.17,-0.01 -675.8,302.62 -675.8,675.79l0 199.76"/>
  <path class="fil0 str18" d="M2143.32 3502.72l0 0c-211.83,0 -383.63,-171.8 -383.63,-383.64l-0.01 -501.9c0.06,-211.81 171.85,-383.51 383.65,-383.51 0,0 0,0 0,0l-0.01 0c211.78,0 383.52,171.74 383.52,383.51l0 501.9c0,-0.01 0,0.13 0,0.13 0,211.77 -171.74,383.51 -383.51,383.51 0,0 0,0 0,0l-0.01 0zm3284.14 -318.02c-100.75,-276.83 -363.95,-461.06 -658.56,-461.06 -154.02,0 -304.02,50.91 -426.21,144.52l-1678.57 -0.03c-75.8,0 -137.28,61.48 -137.28,137.29l-0.01 85.83c0.02,335.86 272.38,608.22 608.23,608.22l832.9 0m-624.49 -1573.43l0 742.09m1525.52 238.09l0 -1011.55c0.03,-2.15 0.07,-4.55 0.07,-6.77 0,-193.29 -156.75,-350.04 -350.04,-350.04 -193.29,0 -350.04,156.75 -350.04,350.04 0,2.22 0.04,4.62 0.09,6.79l0 31.37c-0.03,-227.95 -184.88,-412.8 -412.81,-412.8 -227.93,0 -412.78,184.85 -412.78,412.78l0 -4.46c0,-225.47 -182.85,-408.32 -408.32,-408.32 -225.47,0 -408.32,182.85 -408.32,408.32l0 495.6c-3.82,-209 -174.49,-376.54 -383.57,-376.54 -209.08,0 -379.75,167.54 -383.59,376.57l0 1232.31c0,775.45 628.89,1404.34 1404.38,1404.34l194.11 0c930.67,-0.01 1685.13,-754.47 1685.13,-1685.04 0,-0.26 0,-0.86 0,-1.2 0,-169.89 -62.02,-334.06 -174.32,-461.43l0.01 0.03zm-525.66 -517.52l0 279.43m-210.65 831.34l0 0c-373.17,-0.01 -675.8,302.62 -675.8,675.79l0 199.76"/>
  <path class="fil0 str19" d="M2143.32 3502.72l0 0c-211.83,0 -383.63,-171.8 -383.63,-383.64l-0.01 -501.9c0.06,-211.81 171.85,-383.51 383.65,-383.51 0,0 0,0 0,0l-0.01 0c211.78,0 383.52,171.74 383.52,383.51l0 501.9c0,-0.01 0,0.13 0,0.13 0,211.77 -171.74,383.51 -383.51,383.51 0,0 0,0 0,0l-0.01 0zm3284.14 -318.02c-100.75,-276.83 -363.95,-461.06 -658.56,-461.06 -154.02,0 -304.02,50.91 -426.21,144.52l-1678.57 -0.03c-75.8,0 -137.28,61.48 -137.28,137.29l-0.01 85.83c0.02,335.86 272.38,608.22 608.23,608.22l832.9 0m-624.49 -1573.43l0 742.09m1525.52 238.09l0 -1011.55c0.03,-2.15 0.07,-4.55 0.07,-6.77 0,-193.29 -156.75,-350.04 -350.04,-350.04 -193.29,0 -350.04,156.75 -350.04,350.04 0,2.22 0.04,4.62 0.09,6.79l0 31.37c-0.03,-227.95 -184.88,-412.8 -412.81,-412.8 -227.93,0 -412.78,184.85 -412.78,412.78l0 -4.46c0,-225.47 -182.85,-408.32 -408.32,-408.32 -225.47,0 -408.32,182.85 -408.32,408.32l0 495.6c-3.82,-209 -174.49,-376.54 -383.57,-376.54 -209.08,0 -379.75,167.54 -383.59,376.57l0 1232.31c0,775.45 628.89,1404.34 1404.38,1404.34l194.11 0c930.67,-0.01 1685.13,-754.47 1685.13,-1685.04 0,-0.26 0,-0.86 0,-1.2 0,-169.89 -62.02,-334.06 -174.32,-461.43l0.01 0.03zm-525.66 -517.52l0 279.43m-210.65 831.34l0 0c-373.17,-0.01 -675.8,302.62 -675.8,675.79l0 199.76"/>
  <path class="fil0 str20" d="M2143.32 3502.72l0 0c-211.83,0 -383.63,-171.8 -383.63,-383.64l-0.01 -501.9c0.06,-211.81 171.85,-383.51 383.65,-383.51 0,0 0,0 0,0l-0.01 0c211.78,0 383.52,171.74 383.52,383.51l0 501.9c0,-0.01 0,0.13 0,0.13 0,211.77 -171.74,383.51 -383.51,383.51 0,0 0,0 0,0l-0.01 0zm3284.14 -318.02c-100.75,-276.83 -363.95,-461.06 -658.56,-461.06 -154.02,0 -304.02,50.91 -426.21,144.52l-1678.57 -0.03c-75.8,0 -137.28,61.48 -137.28,137.29l-0.01 85.83c0.02,335.86 272.38,608.22 608.23,608.22l832.9 0m-624.49 -1573.43l0 742.09m1525.52 238.09l0 -1011.55c0.03,-2.15 0.07,-4.55 0.07,-6.77 0,-193.29 -156.75,-350.04 -350.04,-350.04 -193.29,0 -350.04,156.75 -350.04,350.04 0,2.22 0.04,4.62 0.09,6.79l0 31.37c-0.03,-227.95 -184.88,-412.8 -412.81,-412.8 -227.93,0 -412.78,184.85 -412.78,412.78l0 -4.46c0,-225.47 -182.85,-408.32 -408.32,-408.32 -225.47,0 -408.32,182.85 -408.32,408.32l0 495.6c-3.82,-209 -174.49,-376.54 -383.57,-376.54 -209.08,0 -379.75,167.54 -383.59,376.57l0 1232.31c0,775.45 628.89,1404.34 1404.38,1404.34l194.11 0c930.67,-0.01 1685.13,-754.47 1685.13,-1685.04 0,-0.26 0,-0.86 0,-1.2 0,-169.89 -62.02,-334.06 -174.32,-461.43l0.01 0.03zm-525.66 -517.52l0 279.43m-210.65 831.34l0 0c-373.17,-0.01 -675.8,302.62 -675.8,675.79l0 199.76"/>
  <path class="fil0 str21" d="M2143.32 3502.72l0 0c-211.83,0 -383.63,-171.8 -383.63,-383.64l-0.01 -501.9c0.06,-211.81 171.85,-383.51 383.65,-383.51 0,0 0,0 0,0l-0.01 0c211.78,0 383.52,171.74 383.52,383.51l0 501.9c0,-0.01 0,0.13 0,0.13 0,211.77 -171.74,383.51 -383.51,383.51 0,0 0,0 0,0l-0.01 0zm3284.14 -318.02c-100.75,-276.83 -363.95,-461.06 -658.56,-461.06 -154.02,0 -304.02,50.91 -426.21,144.52l-1678.57 -0.03c-75.8,0 -137.28,61.48 -137.28,137.29l-0.01 85.83c0.02,335.86 272.38,608.22 608.23,608.22l832.9 0m-624.49 -1573.43l0 742.09m1525.52 238.09l0 -1011.55c0.03,-2.15 0.07,-4.55 0.07,-6.77 0,-193.29 -156.75,-350.04 -350.04,-350.04 -193.29,0 -350.04,156.75 -350.04,350.04 0,2.22 0.04,4.62 0.09,6.79l0 31.37c-0.03,-227.95 -184.88,-412.8 -412.81,-412.8 -227.93,0 -412.78,184.85 -412.78,412.78l0 -4.46c0,-225.47 -182.85,-408.32 -408.32,-408.32 -225.47,0 -408.32,182.85 -408.32,408.32l0 495.6c-3.82,-209 -174.49,-376.54 -383.57,-376.54 -209.08,0 -379.75,167.54 -383.59,376.57l0 1232.31c0,775.45 628.89,1404.34 1404.38,1404.34l194.11 0c930.67,-0.01 1685.13,-754.47 1685.13,-1685.04 0,-0.26 0,-0.86 0,-1.2 0,-169.89 -62.02,-334.06 -174.32,-461.43l0.01 0.03zm-525.66 -517.52l0 279.43m-210.65 831.34l0 0c-373.17,-0.01 -675.8,302.62 -675.8,675.79l0 199.76"/>
 </g>
</svg>
