<?xml version="1.0" encoding="UTF-8"?>
<!DOCTYPE svg PUBLIC "-//W3C//DTD SVG 1.1//EN" "http://www.w3.org/Graphics/SVG/1.1/DTD/svg11.dtd">
<!-- Creator: CorelDRAW 2021 (64-Bit Deneme Sürümü) -->
<svg xmlns="http://www.w3.org/2000/svg" xml:space="preserve" width="67.7358mm" height="84.6666mm" version="1.1" style="shape-rendering:geometricPrecision; text-rendering:geometricPrecision; image-rendering:optimizeQuality; fill-rule:evenodd; clip-rule:evenodd"
viewBox="0 0 6773.58 8466.66"
 xmlns:xlink="http://www.w3.org/1999/xlink"
 xmlns:xodm="http://www.corel.com/coreldraw/odm/2003">
 <defs>
  <style type="text/css">
   <![CDATA[
    .str11 {stroke:#FF7909;stroke-width:178.89;stroke-linecap:round;stroke-linejoin:round;stroke-miterlimit:22.9256;stroke-opacity:0.039216}
    .str9 {stroke:#FF7909;stroke-width:152.12;stroke-linecap:round;stroke-linejoin:round;stroke-miterlimit:22.9256;stroke-opacity:0.062745}
    .str10 {stroke:#FF7909;stroke-width:89.51;stroke-linecap:round;stroke-linejoin:round;stroke-miterlimit:22.9256;stroke-opacity:0.090196}
    .str13 {stroke:#FF7909;stroke-width:249.9;stroke-linecap:round;stroke-linejoin:round;stroke-miterlimit:22.9256;stroke-opacity:0.200000}
    .str1 {stroke:#FF7909;stroke-width:178.89;stroke-linecap:round;stroke-linejoin:round;stroke-miterlimit:22.9256;stroke-opacity:0.200000}
    .str2 {stroke:#FF7909;stroke-width:152.12;stroke-linecap:round;stroke-linejoin:round;stroke-miterlimit:22.9256;stroke-opacity:0.250980}
    .str14 {stroke:#FF7909;stroke-width:212.36;stroke-linecap:round;stroke-linejoin:round;stroke-miterlimit:22.9256;stroke-opacity:0.250980}
    .str15 {stroke:#FF7909;stroke-width:124.95;stroke-linecap:round;stroke-linejoin:round;stroke-miterlimit:22.9256;stroke-opacity:0.301961}
    .str3 {stroke:#FF7909;stroke-width:89.51;stroke-linecap:round;stroke-linejoin:round;stroke-miterlimit:22.9256;stroke-opacity:0.301961}
    .str18 {stroke:#FFDD39;stroke-width:99.88;stroke-linecap:round;stroke-linejoin:round;stroke-miterlimit:22.9256}
    .str0 {stroke:#333333;stroke-width:158.81;stroke-linecap:round;stroke-linejoin:round;stroke-miterlimit:22.9256}
    .str16 {stroke:#FFA41A;stroke-width:174.96;stroke-linecap:round;stroke-linejoin:round;stroke-miterlimit:22.9256}
    .str12 {stroke:#333333;stroke-width:246.75;stroke-linecap:round;stroke-linejoin:round;stroke-miterlimit:22.9256}
    .str19 {stroke:#FFF648;stroke-width:62.48;stroke-linecap:round;stroke-linejoin:round;stroke-miterlimit:22.9256}
    .str5 {stroke:#FFC329;stroke-width:98.44;stroke-linecap:round;stroke-linejoin:round;stroke-miterlimit:22.9256}
    .str7 {stroke:#FFF648;stroke-width:44.76;stroke-linecap:round;stroke-linejoin:round;stroke-miterlimit:22.9256}
    .str17 {stroke:#FFC329;stroke-width:137.42;stroke-linecap:round;stroke-linejoin:round;stroke-miterlimit:22.9256}
    .str20 {stroke:#FFFF8F;stroke-width:24.94;stroke-linecap:round;stroke-linejoin:round;stroke-miterlimit:22.9256}
    .str4 {stroke:#FFA41A;stroke-width:125.21;stroke-linecap:round;stroke-linejoin:round;stroke-miterlimit:22.9256}
    .str6 {stroke:#FFDD39;stroke-width:71.53;stroke-linecap:round;stroke-linejoin:round;stroke-miterlimit:22.9256}
    .str8 {stroke:#FFFF8F;stroke-width:17.85;stroke-linecap:round;stroke-linejoin:round;stroke-miterlimit:22.9256}
    .fil0 {fill:none;fill-rule:nonzero}
    .fil6 {fill:none;fill-rule:nonzero}
    .fil4 {fill:none;fill-rule:nonzero}
    .fil5 {fill:none;fill-rule:nonzero}
    .fil1 {fill:none;fill-rule:nonzero}
    .fil2 {fill:none;fill-rule:nonzero}
    .fil3 {fill:none;fill-rule:nonzero}
   ]]>
  </style>
   <clipPath id="id0">
    <rect x="724.23" y="6576.31" width="761.25" height="1036.88"/>
   </clipPath>
    <clipPath id="id1">
     <rect x="5317.98" y="6576.31" width="761.25" height="1036.88"/>
    </clipPath>
   <clipPath id="id2">
    <rect x="2351.73" y="6576.31" width="761.25" height="1036.88"/>
   </clipPath>
    <clipPath id="id3">
     <rect x="3034.23" y="6576.31" width="761.25" height="1036.88"/>
    </clipPath>
   <clipPath id="id4">
    <rect x="4635.48" y="6576.31" width="761.25" height="1036.88"/>
   </clipPath>
   <clipPath id="id5">
    <rect x="3729.86" y="6576.31" width="984.37" height="1036.88"/>
   </clipPath>
   <clipPath id="id6">
    <rect x="2089.23" y="6576.31" width="341.25" height="1036.88"/>
   </clipPath>
   <clipPath id="id7">
    <rect x="1406.73" y="6576.31" width="761.25" height="1036.88"/>
   </clipPath>
   <clipPath id="id8">
    <rect x="-482.48" y="5382.72" width="2795.62" height="3071.25"/>
   </clipPath>
    <clipPath id="id9">
     <rect x="4124.39" y="5382.72" width="2795.63" height="3071.25"/>
    </clipPath>
   <clipPath id="id10">
    <rect x="1158.14" y="5382.72" width="2795.63" height="3071.25"/>
   </clipPath>
    <clipPath id="id11">
     <rect x="1840.64" y="5382.72" width="2795.63" height="3071.25"/>
    </clipPath>
   <clipPath id="id12">
    <rect x="3441.89" y="5382.72" width="2795.63" height="3071.25"/>
   </clipPath>
   <clipPath id="id13">
    <rect x="2523.14" y="5382.72" width="3018.75" height="3071.25"/>
   </clipPath>
   <clipPath id="id14">
    <rect x="895.64" y="5382.72" width="2362.5" height="3071.25"/>
   </clipPath>
   <clipPath id="id15">
    <rect x="200.02" y="5382.72" width="2795.62" height="3071.25"/>
   </clipPath>
   <clipPath id="id16">
    <rect x="1719.91" y="151.45" width="3858.76" height="5788.13"/>
   </clipPath>
   <clipPath id="id17">
    <rect x="94.65" y="-1473.81" width="6588.75" height="8518.12"/>
   </clipPath>
 </defs>
 <g id="Katman_x0020_1">
  <metadata id="CorelCorpID_0Corel-Layer"/>
  <g style="clip-path:url(#id0)">
   <image x="724.23" y="6576.31" width="761.25" height="1036.88" xlink:href="scissors_Images\scissors_ImgID1.png"/>
  </g>
  <path class="fil0 str0" d="M1131.1 6701.65c0.01,-0.04 0.01,-0.11 0.01,-0.14 0,-77.26 -62.65,-139.91 -139.91,-139.91 -0.03,0 -0.1,0 -0.14,0l-144.37 0.01c-77.32,-0.01 -140.03,62.7 -140.03,140.03l0 73.37c0,77.33 62.71,140.04 140.04,140.04l144.36 0.02c0.04,-0.01 0.11,-0.01 0.14,-0.01 77.26,0 139.91,62.65 139.91,139.91 0,0.03 0,0.1 0,0.14l0 73.37c0,-0.01 0,-0.01 0,-0.01 0,77.26 -62.65,139.91 -139.91,139.91 -0.03,0 -0.1,0 -0.14,0l-144.37 0.01c0.01,-0.01 0.01,-0.01 0.01,-0.01 -77.28,0 -139.97,-62.63 -140.04,-139.9"/>
  <g id="_3010871155584">
   <g style="clip-path:url(#id1)">
    <image x="5317.98" y="6576.31" width="761.25" height="1036.88" xlink:href="scissors_Images\scissors_ImgID2.png"/>
   </g>
  </g>
  <path class="fil0 str0" d="M5730.11 6701.65c-0.01,-77.34 -62.72,-140.05 -140.05,-140.05l-144.37 0.01c-0.29,-0.01 -0.63,-0.01 -0.92,-0.01 -77.26,0 -139.91,62.65 -139.91,139.91 0,0.03 0,0.1 0,0.14l0 73.37c0,77.32 62.71,140.03 140.04,140.03l144.37 0.02c77.33,-0.01 140.04,62.7 140.04,140.03l0 73.37c-0.07,77.28 -62.76,139.91 -140.04,139.91 0,0 0,0 0,0l-144.37 0.01c-0.03,-0.01 -0.1,-0.01 -0.13,-0.01 -77.26,0 -139.91,-62.65 -139.91,-139.91 0,0 0,0 0,0"/>
  <g style="clip-path:url(#id2)">
   <image x="2351.73" y="6576.31" width="761.25" height="1036.88" xlink:href="scissors_Images\scissors_ImgID3.png"/>
  </g>
  <path class="fil0 str0" d="M2761.23 6701.65c0.01,-77.34 -62.7,-140.05 -140.03,-140.05l-144.39 0.01c-77.32,-0.01 -140.03,62.7 -140.03,140.03l0 73.37c0,77.33 62.71,140.04 140.04,140.04l144.37 0.02c77.34,-0.01 140.05,62.7 140.05,140.03l0 73.37c-0.07,77.28 -62.76,139.91 -140.04,139.91 0,0 0,0 0,0l-144.39 0.01c0.01,-0.01 0.01,-0.01 0.01,-0.01 -77.28,0 -139.97,-62.63 -140.04,-139.9"/>
  <g id="_3010871140128">
   <g style="clip-path:url(#id3)">
    <image x="3034.23" y="6576.31" width="761.25" height="1036.88" xlink:href="scissors_Images\scissors_ImgID4.png"/>
   </g>
  </g>
  <path class="fil0 str0" d="M3446.36 6701.65c-0.01,-77.34 -62.72,-140.05 -140.05,-140.05l-144.37 0.01c-0.25,-0.01 -0.52,-0.01 -0.78,-0.01 -77.33,0 -140.04,62.71 -140.04,140.04 0,0 0,0 0,0l0 73.37c0,77.33 62.71,140.04 140.04,140.04l144.36 0.02c77.33,-0.01 140.04,62.7 140.04,140.03l0 73.37c-0.07,77.28 -62.76,139.91 -140.04,139.91 0,0 0,0 0,0l-144.37 0.01c0.01,-0.01 0.01,-0.01 0.01,-0.01 -77.28,0 -139.97,-62.63 -140.04,-139.9"/>
  <g style="clip-path:url(#id4)">
   <image x="4635.48" y="6576.31" width="761.25" height="1036.88" xlink:href="scissors_Images\scissors_ImgID5.png"/>
  </g>
  <path class="fil0 str0" d="M4712.52 6915.07l192.42 0c77.33,-0.02 140.04,-62.73 140.04,-140.06l0 -73.37c0,-77.33 -62.71,-140.04 -140.04,-140.04l-284.95 0.01 0 706.78"/>
  <line class="fil0 str0" x1="4892.6" y1="7015.08" x2="5044.98" y2= "7268.39" />
  <g style="clip-path:url(#id5)">
   <image x="3729.86" y="6576.31" width="984.37" height="1036.88" xlink:href="scissors_Images\scissors_ImgID6.png"/>
  </g>
  <path class="fil0 str0" d="M4275.07 7161.42c54.54,-59.97 84.78,-138.19 84.78,-219.27 0,-0.12 0,-0.32 0,-0.44l0 -53.42c0,-180.4 -146.29,-326.69 -326.68,-326.69l0 0.01c-180.39,-0.01 -326.68,146.28 -326.68,326.67l0 53.42c0,180.39 146.29,326.68 326.68,326.68l0 0.01c0.12,-0.01 0.28,-0.01 0.4,-0.01 56.88,0 112.85,-14.94 162.21,-43.18"/>
  <g style="clip-path:url(#id6)">
   <image x="2089.23" y="6576.31" width="341.25" height="1036.88" xlink:href="scissors_Images\scissors_ImgID7.png"/>
  </g>
  <line class="fil0 str0" x1="2076.1" y1="6561.61" x2="2076.1" y2= "7268.39" />
  <g style="clip-path:url(#id7)">
   <image x="1406.73" y="6576.31" width="761.25" height="1036.88" xlink:href="scissors_Images\scissors_ImgID8.png"/>
  </g>
  <path class="fil0 str0" d="M1815.97 7128.48c-0.07,77.27 -62.76,139.9 -140.04,139.9 0,0 0,0 0,0l-144.38 0.01c0.01,-0.01 0.01,-0.01 0.01,-0.01 -77.28,0 -139.97,-62.63 -140.04,-139.9l-0.02 -426.83c0.02,-77.34 62.73,-140.05 140.06,-140.05l144.36 0.01c77.34,-0.01 140.05,62.7 140.05,140.03"/>
  <g style="clip-path:url(#id8)">
   <image x="-482.48" y="5382.72" width="2795.62" height="3071.25" xlink:href="scissors_Images\scissors_ImgID9.png"/>
  </g>
  <g id="_3010879756464">
   <path class="fil1 str1" d="M1131.1 6701.65c0.01,-0.04 0.01,-0.11 0.01,-0.14 0,-77.26 -62.65,-139.91 -139.91,-139.91 -0.03,0 -0.1,0 -0.14,0l-144.37 0.01c-77.32,-0.01 -140.03,62.7 -140.03,140.03l0 73.37c0,77.33 62.71,140.04 140.04,140.04l144.36 0.02c0.04,-0.01 0.11,-0.01 0.14,-0.01 77.26,0 139.91,62.65 139.91,139.91 0,0.03 0,0.1 0,0.14l0 73.37c0,-0.01 0,-0.01 0,-0.01 0,77.26 -62.65,139.91 -139.91,139.91 -0.03,0 -0.1,0 -0.14,0l-144.37 0.01c0.01,-0.01 0.01,-0.01 0.01,-0.01 -77.28,0 -139.97,-62.63 -140.04,-139.9"/>
  </g>
  <g id="_3010879756752">
   <path class="fil2 str2" d="M1131.1 6701.65c0.01,-0.04 0.01,-0.11 0.01,-0.14 0,-77.26 -62.65,-139.91 -139.91,-139.91 -0.03,0 -0.1,0 -0.14,0l-144.37 0.01c-77.32,-0.01 -140.03,62.7 -140.03,140.03l0 73.37c0,77.33 62.71,140.04 140.04,140.04l144.36 0.02c0.04,-0.01 0.11,-0.01 0.14,-0.01 77.26,0 139.91,62.65 139.91,139.91 0,0.03 0,0.1 0,0.14l0 73.37c0,-0.01 0,-0.01 0,-0.01 0,77.26 -62.65,139.91 -139.91,139.91 -0.03,0 -0.1,0 -0.14,0l-144.37 0.01c0.01,-0.01 0.01,-0.01 0.01,-0.01 -77.28,0 -139.97,-62.63 -140.04,-139.9"/>
  </g>
  <g id="_3010879757712">
   <path class="fil3 str3" d="M1131.1 6701.65c0.01,-0.04 0.01,-0.11 0.01,-0.14 0,-77.26 -62.65,-139.91 -139.91,-139.91 -0.03,0 -0.1,0 -0.14,0l-144.37 0.01c-77.32,-0.01 -140.03,62.7 -140.03,140.03l0 73.37c0,77.33 62.71,140.04 140.04,140.04l144.36 0.02c0.04,-0.01 0.11,-0.01 0.14,-0.01 77.26,0 139.91,62.65 139.91,139.91 0,0.03 0,0.1 0,0.14l0 73.37c0,-0.01 0,-0.01 0,-0.01 0,77.26 -62.65,139.91 -139.91,139.91 -0.03,0 -0.1,0 -0.14,0l-144.37 0.01c0.01,-0.01 0.01,-0.01 0.01,-0.01 -77.28,0 -139.97,-62.63 -140.04,-139.9"/>
  </g>
  <path class="fil0 str4" d="M1131.1 6701.65c0.01,-0.04 0.01,-0.11 0.01,-0.14 0,-77.26 -62.65,-139.91 -139.91,-139.91 -0.03,0 -0.1,0 -0.14,0l-144.37 0.01c-77.32,-0.01 -140.03,62.7 -140.03,140.03l0 73.37c0,77.33 62.71,140.04 140.04,140.04l144.36 0.02c0.04,-0.01 0.11,-0.01 0.14,-0.01 77.26,0 139.91,62.65 139.91,139.91 0,0.03 0,0.1 0,0.14l0 73.37c0,-0.01 0,-0.01 0,-0.01 0,77.26 -62.65,139.91 -139.91,139.91 -0.03,0 -0.1,0 -0.14,0l-144.37 0.01c0.01,-0.01 0.01,-0.01 0.01,-0.01 -77.28,0 -139.97,-62.63 -140.04,-139.9"/>
  <path class="fil0 str5" d="M1131.1 6701.65c0.01,-0.04 0.01,-0.11 0.01,-0.14 0,-77.26 -62.65,-139.91 -139.91,-139.91 -0.03,0 -0.1,0 -0.14,0l-144.37 0.01c-77.32,-0.01 -140.03,62.7 -140.03,140.03l0 73.37c0,77.33 62.71,140.04 140.04,140.04l144.36 0.02c0.04,-0.01 0.11,-0.01 0.14,-0.01 77.26,0 139.91,62.65 139.91,139.91 0,0.03 0,0.1 0,0.14l0 73.37c0,-0.01 0,-0.01 0,-0.01 0,77.26 -62.65,139.91 -139.91,139.91 -0.03,0 -0.1,0 -0.14,0l-144.37 0.01c0.01,-0.01 0.01,-0.01 0.01,-0.01 -77.28,0 -139.97,-62.63 -140.04,-139.9"/>
  <path class="fil0 str6" d="M1131.1 6701.65c0.01,-0.04 0.01,-0.11 0.01,-0.14 0,-77.26 -62.65,-139.91 -139.91,-139.91 -0.03,0 -0.1,0 -0.14,0l-144.37 0.01c-77.32,-0.01 -140.03,62.7 -140.03,140.03l0 73.37c0,77.33 62.71,140.04 140.04,140.04l144.36 0.02c0.04,-0.01 0.11,-0.01 0.14,-0.01 77.26,0 139.91,62.65 139.91,139.91 0,0.03 0,0.1 0,0.14l0 73.37c0,-0.01 0,-0.01 0,-0.01 0,77.26 -62.65,139.91 -139.91,139.91 -0.03,0 -0.1,0 -0.14,0l-144.37 0.01c0.01,-0.01 0.01,-0.01 0.01,-0.01 -77.28,0 -139.97,-62.63 -140.04,-139.9"/>
  <path class="fil0 str7" d="M1131.1 6701.65c0.01,-0.04 0.01,-0.11 0.01,-0.14 0,-77.26 -62.65,-139.91 -139.91,-139.91 -0.03,0 -0.1,0 -0.14,0l-144.37 0.01c-77.32,-0.01 -140.03,62.7 -140.03,140.03l0 73.37c0,77.33 62.71,140.04 140.04,140.04l144.36 0.02c0.04,-0.01 0.11,-0.01 0.14,-0.01 77.26,0 139.91,62.65 139.91,139.91 0,0.03 0,0.1 0,0.14l0 73.37c0,-0.01 0,-0.01 0,-0.01 0,77.26 -62.65,139.91 -139.91,139.91 -0.03,0 -0.1,0 -0.14,0l-144.37 0.01c0.01,-0.01 0.01,-0.01 0.01,-0.01 -77.28,0 -139.97,-62.63 -140.04,-139.9"/>
  <path class="fil0 str8" d="M1131.1 6701.65c0.01,-0.04 0.01,-0.11 0.01,-0.14 0,-77.26 -62.65,-139.91 -139.91,-139.91 -0.03,0 -0.1,0 -0.14,0l-144.37 0.01c-77.32,-0.01 -140.03,62.7 -140.03,140.03l0 73.37c0,77.33 62.71,140.04 140.04,140.04l144.36 0.02c0.04,-0.01 0.11,-0.01 0.14,-0.01 77.26,0 139.91,62.65 139.91,139.91 0,0.03 0,0.1 0,0.14l0 73.37c0,-0.01 0,-0.01 0,-0.01 0,77.26 -62.65,139.91 -139.91,139.91 -0.03,0 -0.1,0 -0.14,0l-144.37 0.01c0.01,-0.01 0.01,-0.01 0.01,-0.01 -77.28,0 -139.97,-62.63 -140.04,-139.9"/>
  <g id="_3010879753680">
   <g style="clip-path:url(#id9)">
    <image x="4124.39" y="5382.72" width="2795.63" height="3071.25" xlink:href="scissors_Images\scissors_ImgID10.png"/>
   </g>
  </g>
  <g id="_3010879752768">
   <path class="fil1 str1" d="M5730.11 6701.65c-0.01,-77.34 -62.72,-140.05 -140.05,-140.05l-144.37 0.01c-0.29,-0.01 -0.63,-0.01 -0.92,-0.01 -77.26,0 -139.91,62.65 -139.91,139.91 0,0.03 0,0.1 0,0.14l0 73.37c0,77.32 62.71,140.03 140.04,140.03l144.37 0.02c77.33,-0.01 140.04,62.7 140.04,140.03l0 73.37c-0.07,77.28 -62.76,139.91 -140.04,139.91 0,0 0,0 0,0l-144.37 0.01c-0.03,-0.01 -0.1,-0.01 -0.13,-0.01 -77.26,0 -139.91,-62.65 -139.91,-139.91 0,0 0,0 0,0"/>
  </g>
  <g id="_3010879750848">
   <path class="fil4 str9" d="M5730.11 6701.65c-0.01,-77.34 -62.72,-140.05 -140.05,-140.05l-144.37 0.01c-0.29,-0.01 -0.63,-0.01 -0.92,-0.01 -77.26,0 -139.91,62.65 -139.91,139.91 0,0.03 0,0.1 0,0.14l0 73.37c0,77.32 62.71,140.03 140.04,140.03l144.37 0.02c77.33,-0.01 140.04,62.7 140.04,140.03l0 73.37c-0.07,77.28 -62.76,139.91 -140.04,139.91 0,0 0,0 0,0l-144.37 0.01c-0.03,-0.01 -0.1,-0.01 -0.13,-0.01 -77.26,0 -139.91,-62.65 -139.91,-139.91 0,0 0,0 0,0"/>
  </g>
  <g id="_3010879750656">
   <path class="fil3 str3" d="M5730.11 6701.65c-0.01,-77.34 -62.72,-140.05 -140.05,-140.05l-144.37 0.01c-0.29,-0.01 -0.63,-0.01 -0.92,-0.01 -77.26,0 -139.91,62.65 -139.91,139.91 0,0.03 0,0.1 0,0.14l0 73.37c0,77.32 62.71,140.03 140.04,140.03l144.37 0.02c77.33,-0.01 140.04,62.7 140.04,140.03l0 73.37c-0.07,77.28 -62.76,139.91 -140.04,139.91 0,0 0,0 0,0l-144.37 0.01c-0.03,-0.01 -0.1,-0.01 -0.13,-0.01 -77.26,0 -139.91,-62.65 -139.91,-139.91 0,0 0,0 0,0"/>
  </g>
  <path class="fil0 str4" d="M5730.11 6701.65c-0.01,-77.34 -62.72,-140.05 -140.05,-140.05l-144.37 0.01c-0.29,-0.01 -0.63,-0.01 -0.92,-0.01 -77.26,0 -139.91,62.65 -139.91,139.91 0,0.03 0,0.1 0,0.14l0 73.37c0,77.32 62.71,140.03 140.04,140.03l144.37 0.02c77.33,-0.01 140.04,62.7 140.04,140.03l0 73.37c-0.07,77.28 -62.76,139.91 -140.04,139.91 0,0 0,0 0,0l-144.37 0.01c-0.03,-0.01 -0.1,-0.01 -0.13,-0.01 -77.26,0 -139.91,-62.65 -139.91,-139.91 0,0 0,0 0,0"/>
  <path class="fil0 str5" d="M5730.11 6701.65c-0.01,-77.34 -62.72,-140.05 -140.05,-140.05l-144.37 0.01c-0.29,-0.01 -0.63,-0.01 -0.92,-0.01 -77.26,0 -139.91,62.65 -139.91,139.91 0,0.03 0,0.1 0,0.14l0 73.37c0,77.32 62.71,140.03 140.04,140.03l144.37 0.02c77.33,-0.01 140.04,62.7 140.04,140.03l0 73.37c-0.07,77.28 -62.76,139.91 -140.04,139.91 0,0 0,0 0,0l-144.37 0.01c-0.03,-0.01 -0.1,-0.01 -0.13,-0.01 -77.26,0 -139.91,-62.65 -139.91,-139.91 0,0 0,0 0,0"/>
  <path class="fil0 str6" d="M5730.11 6701.65c-0.01,-77.34 -62.72,-140.05 -140.05,-140.05l-144.37 0.01c-0.29,-0.01 -0.63,-0.01 -0.92,-0.01 -77.26,0 -139.91,62.65 -139.91,139.91 0,0.03 0,0.1 0,0.14l0 73.37c0,77.32 62.71,140.03 140.04,140.03l144.37 0.02c77.33,-0.01 140.04,62.7 140.04,140.03l0 73.37c-0.07,77.28 -62.76,139.91 -140.04,139.91 0,0 0,0 0,0l-144.37 0.01c-0.03,-0.01 -0.1,-0.01 -0.13,-0.01 -77.26,0 -139.91,-62.65 -139.91,-139.91 0,0 0,0 0,0"/>
  <path class="fil0 str7" d="M5730.11 6701.65c-0.01,-77.34 -62.72,-140.05 -140.05,-140.05l-144.37 0.01c-0.29,-0.01 -0.63,-0.01 -0.92,-0.01 -77.26,0 -139.91,62.65 -139.91,139.91 0,0.03 0,0.1 0,0.14l0 73.37c0,77.32 62.71,140.03 140.04,140.03l144.37 0.02c77.33,-0.01 140.04,62.7 140.04,140.03l0 73.37c-0.07,77.28 -62.76,139.91 -140.04,139.91 0,0 0,0 0,0l-144.37 0.01c-0.03,-0.01 -0.1,-0.01 -0.13,-0.01 -77.26,0 -139.91,-62.65 -139.91,-139.91 0,0 0,0 0,0"/>
  <path class="fil0 str8" d="M5730.11 6701.65c-0.01,-77.34 -62.72,-140.05 -140.05,-140.05l-144.37 0.01c-0.29,-0.01 -0.63,-0.01 -0.92,-0.01 -77.26,0 -139.91,62.65 -139.91,139.91 0,0.03 0,0.1 0,0.14l0 73.37c0,77.32 62.71,140.03 140.04,140.03l144.37 0.02c77.33,-0.01 140.04,62.7 140.04,140.03l0 73.37c-0.07,77.28 -62.76,139.91 -140.04,139.91 0,0 0,0 0,0l-144.37 0.01c-0.03,-0.01 -0.1,-0.01 -0.13,-0.01 -77.26,0 -139.91,-62.65 -139.91,-139.91 0,0 0,0 0,0"/>
  <g style="clip-path:url(#id10)">
   <image x="1158.14" y="5382.72" width="2795.63" height="3071.25" xlink:href="scissors_Images\scissors_ImgID11.png"/>
  </g>
  <g id="_3010879749024">
   <path class="fil1 str1" d="M2761.23 6701.65c0.01,-77.34 -62.7,-140.05 -140.03,-140.05l-144.39 0.01c-77.32,-0.01 -140.03,62.7 -140.03,140.03l0 73.37c0,77.33 62.71,140.04 140.04,140.04l144.37 0.02c77.34,-0.01 140.05,62.7 140.05,140.03l0 73.37c-0.07,77.28 -62.76,139.91 -140.04,139.91 0,0 0,0 0,0l-144.39 0.01c0.01,-0.01 0.01,-0.01 0.01,-0.01 -77.28,0 -139.97,-62.63 -140.04,-139.9"/>
  </g>
  <g id="_3010879746048">
   <path class="fil2 str2" d="M2761.23 6701.65c0.01,-77.34 -62.7,-140.05 -140.03,-140.05l-144.39 0.01c-77.32,-0.01 -140.03,62.7 -140.03,140.03l0 73.37c0,77.33 62.71,140.04 140.04,140.04l144.37 0.02c77.34,-0.01 140.05,62.7 140.05,140.03l0 73.37c-0.07,77.28 -62.76,139.91 -140.04,139.91 0,0 0,0 0,0l-144.39 0.01c0.01,-0.01 0.01,-0.01 0.01,-0.01 -77.28,0 -139.97,-62.63 -140.04,-139.9"/>
  </g>
  <g id="_3010879745952">
   <path class="fil3 str3" d="M2761.23 6701.65c0.01,-77.34 -62.7,-140.05 -140.03,-140.05l-144.39 0.01c-77.32,-0.01 -140.03,62.7 -140.03,140.03l0 73.37c0,77.33 62.71,140.04 140.04,140.04l144.37 0.02c77.34,-0.01 140.05,62.7 140.05,140.03l0 73.37c-0.07,77.28 -62.76,139.91 -140.04,139.91 0,0 0,0 0,0l-144.39 0.01c0.01,-0.01 0.01,-0.01 0.01,-0.01 -77.28,0 -139.97,-62.63 -140.04,-139.9"/>
  </g>
  <path class="fil0 str4" d="M2761.23 6701.65c0.01,-77.34 -62.7,-140.05 -140.03,-140.05l-144.39 0.01c-77.32,-0.01 -140.03,62.7 -140.03,140.03l0 73.37c0,77.33 62.71,140.04 140.04,140.04l144.37 0.02c77.34,-0.01 140.05,62.7 140.05,140.03l0 73.37c-0.07,77.28 -62.76,139.91 -140.04,139.91 0,0 0,0 0,0l-144.39 0.01c0.01,-0.01 0.01,-0.01 0.01,-0.01 -77.28,0 -139.97,-62.63 -140.04,-139.9"/>
  <path class="fil0 str5" d="M2761.23 6701.65c0.01,-77.34 -62.7,-140.05 -140.03,-140.05l-144.39 0.01c-77.32,-0.01 -140.03,62.7 -140.03,140.03l0 73.37c0,77.33 62.71,140.04 140.04,140.04l144.37 0.02c77.34,-0.01 140.05,62.7 140.05,140.03l0 73.37c-0.07,77.28 -62.76,139.91 -140.04,139.91 0,0 0,0 0,0l-144.39 0.01c0.01,-0.01 0.01,-0.01 0.01,-0.01 -77.28,0 -139.97,-62.63 -140.04,-139.9"/>
  <path class="fil0 str6" d="M2761.23 6701.65c0.01,-77.34 -62.7,-140.05 -140.03,-140.05l-144.39 0.01c-77.32,-0.01 -140.03,62.7 -140.03,140.03l0 73.37c0,77.33 62.71,140.04 140.04,140.04l144.37 0.02c77.34,-0.01 140.05,62.7 140.05,140.03l0 73.37c-0.07,77.28 -62.76,139.91 -140.04,139.91 0,0 0,0 0,0l-144.39 0.01c0.01,-0.01 0.01,-0.01 0.01,-0.01 -77.28,0 -139.97,-62.63 -140.04,-139.9"/>
  <path class="fil0 str7" d="M2761.23 6701.65c0.01,-77.34 -62.7,-140.05 -140.03,-140.05l-144.39 0.01c-77.32,-0.01 -140.03,62.7 -140.03,140.03l0 73.37c0,77.33 62.71,140.04 140.04,140.04l144.37 0.02c77.34,-0.01 140.05,62.7 140.05,140.03l0 73.37c-0.07,77.28 -62.76,139.91 -140.04,139.91 0,0 0,0 0,0l-144.39 0.01c0.01,-0.01 0.01,-0.01 0.01,-0.01 -77.28,0 -139.97,-62.63 -140.04,-139.9"/>
  <path class="fil0 str8" d="M2761.23 6701.65c0.01,-77.34 -62.7,-140.05 -140.03,-140.05l-144.39 0.01c-77.32,-0.01 -140.03,62.7 -140.03,140.03l0 73.37c0,77.33 62.71,140.04 140.04,140.04l144.37 0.02c77.34,-0.01 140.05,62.7 140.05,140.03l0 73.37c-0.07,77.28 -62.76,139.91 -140.04,139.91 0,0 0,0 0,0l-144.39 0.01c0.01,-0.01 0.01,-0.01 0.01,-0.01 -77.28,0 -139.97,-62.63 -140.04,-139.9"/>
  <g id="_3010879742400">
   <g style="clip-path:url(#id11)">
    <image x="1840.64" y="5382.72" width="2795.63" height="3071.25" xlink:href="scissors_Images\scissors_ImgID12.png"/>
   </g>
  </g>
  <g id="_3010879736880">
   <path class="fil1 str1" d="M3446.36 6701.65c-0.01,-77.34 -62.72,-140.05 -140.05,-140.05l-144.37 0.01c-0.25,-0.01 -0.52,-0.01 -0.78,-0.01 -77.33,0 -140.04,62.71 -140.04,140.04 0,0 0,0 0,0l0 73.37c0,77.33 62.71,140.04 140.04,140.04l144.36 0.02c77.33,-0.01 140.04,62.7 140.04,140.03l0 73.37c-0.07,77.28 -62.76,139.91 -140.04,139.91 0,0 0,0 0,0l-144.37 0.01c0.01,-0.01 0.01,-0.01 0.01,-0.01 -77.28,0 -139.97,-62.63 -140.04,-139.9"/>
  </g>
  <g id="_3010879737264">
   <path class="fil2 str2" d="M3446.36 6701.65c-0.01,-77.34 -62.72,-140.05 -140.05,-140.05l-144.37 0.01c-0.25,-0.01 -0.52,-0.01 -0.78,-0.01 -77.33,0 -140.04,62.71 -140.04,140.04 0,0 0,0 0,0l0 73.37c0,77.33 62.71,140.04 140.04,140.04l144.36 0.02c77.33,-0.01 140.04,62.7 140.04,140.03l0 73.37c-0.07,77.28 -62.76,139.91 -140.04,139.91 0,0 0,0 0,0l-144.37 0.01c0.01,-0.01 0.01,-0.01 0.01,-0.01 -77.28,0 -139.97,-62.63 -140.04,-139.9"/>
  </g>
  <g id="_3010879737840">
   <path class="fil5 str10" d="M3446.36 6701.65c-0.01,-77.34 -62.72,-140.05 -140.05,-140.05l-144.37 0.01c-0.25,-0.01 -0.52,-0.01 -0.78,-0.01 -77.33,0 -140.04,62.71 -140.04,140.04 0,0 0,0 0,0l0 73.37c0,77.33 62.71,140.04 140.04,140.04l144.36 0.02c77.33,-0.01 140.04,62.7 140.04,140.03l0 73.37c-0.07,77.28 -62.76,139.91 -140.04,139.91 0,0 0,0 0,0l-144.37 0.01c0.01,-0.01 0.01,-0.01 0.01,-0.01 -77.28,0 -139.97,-62.63 -140.04,-139.9"/>
  </g>
  <path class="fil0 str4" d="M3446.36 6701.65c-0.01,-77.34 -62.72,-140.05 -140.05,-140.05l-144.37 0.01c-0.25,-0.01 -0.52,-0.01 -0.78,-0.01 -77.33,0 -140.04,62.71 -140.04,140.04 0,0 0,0 0,0l0 73.37c0,77.33 62.71,140.04 140.04,140.04l144.36 0.02c77.33,-0.01 140.04,62.7 140.04,140.03l0 73.37c-0.07,77.28 -62.76,139.91 -140.04,139.91 0,0 0,0 0,0l-144.37 0.01c0.01,-0.01 0.01,-0.01 0.01,-0.01 -77.28,0 -139.97,-62.63 -140.04,-139.9"/>
  <path class="fil0 str5" d="M3446.36 6701.65c-0.01,-77.34 -62.72,-140.05 -140.05,-140.05l-144.37 0.01c-0.25,-0.01 -0.52,-0.01 -0.78,-0.01 -77.33,0 -140.04,62.71 -140.04,140.04 0,0 0,0 0,0l0 73.37c0,77.33 62.71,140.04 140.04,140.04l144.36 0.02c77.33,-0.01 140.04,62.7 140.04,140.03l0 73.37c-0.07,77.28 -62.76,139.91 -140.04,139.91 0,0 0,0 0,0l-144.37 0.01c0.01,-0.01 0.01,-0.01 0.01,-0.01 -77.28,0 -139.97,-62.63 -140.04,-139.9"/>
  <path class="fil0 str6" d="M3446.36 6701.65c-0.01,-77.34 -62.72,-140.05 -140.05,-140.05l-144.37 0.01c-0.25,-0.01 -0.52,-0.01 -0.78,-0.01 -77.33,0 -140.04,62.71 -140.04,140.04 0,0 0,0 0,0l0 73.37c0,77.33 62.71,140.04 140.04,140.04l144.36 0.02c77.33,-0.01 140.04,62.7 140.04,140.03l0 73.37c-0.07,77.28 -62.76,139.91 -140.04,139.91 0,0 0,0 0,0l-144.37 0.01c0.01,-0.01 0.01,-0.01 0.01,-0.01 -77.28,0 -139.97,-62.63 -140.04,-139.9"/>
  <path class="fil0 str7" d="M3446.36 6701.65c-0.01,-77.34 -62.72,-140.05 -140.05,-140.05l-144.37 0.01c-0.25,-0.01 -0.52,-0.01 -0.78,-0.01 -77.33,0 -140.04,62.71 -140.04,140.04 0,0 0,0 0,0l0 73.37c0,77.33 62.71,140.04 140.04,140.04l144.36 0.02c77.33,-0.01 140.04,62.7 140.04,140.03l0 73.37c-0.07,77.28 -62.76,139.91 -140.04,139.91 0,0 0,0 0,0l-144.37 0.01c0.01,-0.01 0.01,-0.01 0.01,-0.01 -77.28,0 -139.97,-62.63 -140.04,-139.9"/>
  <path class="fil0 str8" d="M3446.36 6701.65c-0.01,-77.34 -62.72,-140.05 -140.05,-140.05l-144.37 0.01c-0.25,-0.01 -0.52,-0.01 -0.78,-0.01 -77.33,0 -140.04,62.71 -140.04,140.04 0,0 0,0 0,0l0 73.37c0,77.33 62.71,140.04 140.04,140.04l144.36 0.02c77.33,-0.01 140.04,62.7 140.04,140.03l0 73.37c-0.07,77.28 -62.76,139.91 -140.04,139.91 0,0 0,0 0,0l-144.37 0.01c0.01,-0.01 0.01,-0.01 0.01,-0.01 -77.28,0 -139.97,-62.63 -140.04,-139.9"/>
  <g style="clip-path:url(#id12)">
   <image x="3441.89" y="5382.72" width="2795.63" height="3071.25" xlink:href="scissors_Images\scissors_ImgID13.png"/>
  </g>
  <g id="_3010879733712">
   <path class="fil1 str1" d="M4712.52 6915.07l192.42 0c77.33,-0.02 140.04,-62.73 140.04,-140.06l0 -73.37c0,-77.33 -62.71,-140.04 -140.04,-140.04l-284.95 0.01 0 706.78"/>
   <line class="fil6 str11" x1="4892.6" y1="7015.08" x2="5044.98" y2= "7268.39" />
  </g>
  <g id="_3010879733568">
   <path class="fil2 str2" d="M4712.52 6915.07l192.42 0c77.33,-0.02 140.04,-62.73 140.04,-140.06l0 -73.37c0,-77.33 -62.71,-140.04 -140.04,-140.04l-284.95 0.01 0 706.78"/>
   <line class="fil2 str2" x1="4892.6" y1="7015.08" x2="5044.98" y2= "7268.39" />
  </g>
  <g id="_3010879731072">
   <path class="fil3 str3" d="M4712.52 6915.07l192.42 0c77.33,-0.02 140.04,-62.73 140.04,-140.06l0 -73.37c0,-77.33 -62.71,-140.04 -140.04,-140.04l-284.95 0.01 0 706.78"/>
   <line class="fil3 str3" x1="4892.6" y1="7015.08" x2="5044.98" y2= "7268.39" />
  </g>
  <path class="fil0 str4" d="M4712.52 6915.07l192.42 0c77.33,-0.02 140.04,-62.73 140.04,-140.06l0 -73.37c0,-77.33 -62.71,-140.04 -140.04,-140.04l-284.95 0.01 0 706.78"/>
  <line class="fil0 str4" x1="4892.6" y1="7015.08" x2="5044.98" y2= "7268.39" />
  <path class="fil0 str5" d="M4712.52 6915.07l192.42 0c77.33,-0.02 140.04,-62.73 140.04,-140.06l0 -73.37c0,-77.33 -62.71,-140.04 -140.04,-140.04l-284.95 0.01 0 706.78"/>
  <line class="fil0 str5" x1="4892.6" y1="7015.08" x2="5044.98" y2= "7268.39" />
  <path class="fil0 str6" d="M4712.52 6915.07l192.42 0c77.33,-0.02 140.04,-62.73 140.04,-140.06l0 -73.37c0,-77.33 -62.71,-140.04 -140.04,-140.04l-284.95 0.01 0 706.78"/>
  <line class="fil0 str6" x1="4892.6" y1="7015.08" x2="5044.98" y2= "7268.39" />
  <path class="fil0 str7" d="M4712.52 6915.07l192.42 0c77.33,-0.02 140.04,-62.73 140.04,-140.06l0 -73.37c0,-77.33 -62.71,-140.04 -140.04,-140.04l-284.95 0.01 0 706.78"/>
  <line class="fil0 str7" x1="4892.6" y1="7015.08" x2="5044.98" y2= "7268.39" />
  <path class="fil0 str8" d="M4712.52 6915.07l192.42 0c77.33,-0.02 140.04,-62.73 140.04,-140.06l0 -73.37c0,-77.33 -62.71,-140.04 -140.04,-140.04l-284.95 0.01 0 706.78"/>
  <line class="fil0 str8" x1="4892.6" y1="7015.08" x2="5044.98" y2= "7268.39" />
  <g style="clip-path:url(#id13)">
   <image x="2523.14" y="5382.72" width="3018.75" height="3071.25" xlink:href="scissors_Images\scissors_ImgID14.png"/>
  </g>
  <path class="fil1 str1" d="M4275.07 7161.42c54.54,-59.97 84.78,-138.19 84.78,-219.27 0,-0.12 0,-0.32 0,-0.44l0 -53.42c0,-180.4 -146.29,-326.69 -326.68,-326.69l0 0.01c-180.39,-0.01 -326.68,146.28 -326.68,326.67l0 53.42c0,180.39 146.29,326.68 326.68,326.68l0 0.01c0.12,-0.01 0.28,-0.01 0.4,-0.01 56.88,0 112.85,-14.94 162.21,-43.18"/>
  <path class="fil2 str2" d="M4275.07 7161.42c54.54,-59.97 84.78,-138.19 84.78,-219.27 0,-0.12 0,-0.32 0,-0.44l0 -53.42c0,-180.4 -146.29,-326.69 -326.68,-326.69l0 0.01c-180.39,-0.01 -326.68,146.28 -326.68,326.67l0 53.42c0,180.39 146.29,326.68 326.68,326.68l0 0.01c0.12,-0.01 0.28,-0.01 0.4,-0.01 56.88,0 112.85,-14.94 162.21,-43.18"/>
  <path class="fil3 str3" d="M4275.07 7161.42c54.54,-59.97 84.78,-138.19 84.78,-219.27 0,-0.12 0,-0.32 0,-0.44l0 -53.42c0,-180.4 -146.29,-326.69 -326.68,-326.69l0 0.01c-180.39,-0.01 -326.68,146.28 -326.68,326.67l0 53.42c0,180.39 146.29,326.68 326.68,326.68l0 0.01c0.12,-0.01 0.28,-0.01 0.4,-0.01 56.88,0 112.85,-14.94 162.21,-43.18"/>
  <path class="fil0 str4" d="M4275.07 7161.42c54.54,-59.97 84.78,-138.19 84.78,-219.27 0,-0.12 0,-0.32 0,-0.44l0 -53.42c0,-180.4 -146.29,-326.69 -326.68,-326.69l0 0.01c-180.39,-0.01 -326.68,146.28 -326.68,326.67l0 53.42c0,180.39 146.29,326.68 326.68,326.68l0 0.01c0.12,-0.01 0.28,-0.01 0.4,-0.01 56.88,0 112.85,-14.94 162.21,-43.18"/>
  <path class="fil0 str5" d="M4275.07 7161.42c54.54,-59.97 84.78,-138.19 84.78,-219.27 0,-0.12 0,-0.32 0,-0.44l0 -53.42c0,-180.4 -146.29,-326.69 -326.68,-326.69l0 0.01c-180.39,-0.01 -326.68,146.28 -326.68,326.67l0 53.42c0,180.39 146.29,326.68 326.68,326.68l0 0.01c0.12,-0.01 0.28,-0.01 0.4,-0.01 56.88,0 112.85,-14.94 162.21,-43.18"/>
  <path class="fil0 str6" d="M4275.07 7161.42c54.54,-59.97 84.78,-138.19 84.78,-219.27 0,-0.12 0,-0.32 0,-0.44l0 -53.42c0,-180.4 -146.29,-326.69 -326.68,-326.69l0 0.01c-180.39,-0.01 -326.68,146.28 -326.68,326.67l0 53.42c0,180.39 146.29,326.68 326.68,326.68l0 0.01c0.12,-0.01 0.28,-0.01 0.4,-0.01 56.88,0 112.85,-14.94 162.21,-43.18"/>
  <path class="fil0 str7" d="M4275.07 7161.42c54.54,-59.97 84.78,-138.19 84.78,-219.27 0,-0.12 0,-0.32 0,-0.44l0 -53.42c0,-180.4 -146.29,-326.69 -326.68,-326.69l0 0.01c-180.39,-0.01 -326.68,146.28 -326.68,326.67l0 53.42c0,180.39 146.29,326.68 326.68,326.68l0 0.01c0.12,-0.01 0.28,-0.01 0.4,-0.01 56.88,0 112.85,-14.94 162.21,-43.18"/>
  <path class="fil0 str8" d="M4275.07 7161.42c54.54,-59.97 84.78,-138.19 84.78,-219.27 0,-0.12 0,-0.32 0,-0.44l0 -53.42c0,-180.4 -146.29,-326.69 -326.68,-326.69l0 0.01c-180.39,-0.01 -326.68,146.28 -326.68,326.67l0 53.42c0,180.39 146.29,326.68 326.68,326.68l0 0.01c0.12,-0.01 0.28,-0.01 0.4,-0.01 56.88,0 112.85,-14.94 162.21,-43.18"/>
  <g style="clip-path:url(#id14)">
   <image x="895.64" y="5382.72" width="2362.5" height="3071.25" xlink:href="scissors_Images\scissors_ImgID15.png"/>
  </g>
  <line class="fil1 str1" x1="2076.1" y1="6561.61" x2="2076.1" y2= "7268.39" />
  <line class="fil2 str2" x1="2076.1" y1="6561.61" x2="2076.1" y2= "7268.39" />
  <line class="fil3 str3" x1="2076.1" y1="6561.61" x2="2076.1" y2= "7268.39" />
  <line class="fil0 str4" x1="2076.1" y1="6561.61" x2="2076.1" y2= "7268.39" />
  <line class="fil0 str5" x1="2076.1" y1="6561.61" x2="2076.1" y2= "7268.39" />
  <line class="fil0 str6" x1="2076.1" y1="6561.61" x2="2076.1" y2= "7268.39" />
  <line class="fil0 str7" x1="2076.1" y1="6561.61" x2="2076.1" y2= "7268.39" />
  <line class="fil0 str8" x1="2076.1" y1="6561.61" x2="2076.1" y2= "7268.39" />
  <g style="clip-path:url(#id15)">
   <image x="200.02" y="5382.72" width="2795.62" height="3071.25" xlink:href="scissors_Images\scissors_ImgID16.png"/>
  </g>
  <path class="fil1 str1" d="M1815.97 7128.48c-0.07,77.27 -62.76,139.9 -140.04,139.9 0,0 0,0 0,0l-144.38 0.01c0.01,-0.01 0.01,-0.01 0.01,-0.01 -77.28,0 -139.97,-62.63 -140.04,-139.9l-0.02 -426.83c0.02,-77.34 62.73,-140.05 140.06,-140.05l144.36 0.01c77.34,-0.01 140.05,62.7 140.05,140.03"/>
  <path class="fil2 str2" d="M1815.97 7128.48c-0.07,77.27 -62.76,139.9 -140.04,139.9 0,0 0,0 0,0l-144.38 0.01c0.01,-0.01 0.01,-0.01 0.01,-0.01 -77.28,0 -139.97,-62.63 -140.04,-139.9l-0.02 -426.83c0.02,-77.34 62.73,-140.05 140.06,-140.05l144.36 0.01c77.34,-0.01 140.05,62.7 140.05,140.03"/>
  <path class="fil3 str3" d="M1815.97 7128.48c-0.07,77.27 -62.76,139.9 -140.04,139.9 0,0 0,0 0,0l-144.38 0.01c0.01,-0.01 0.01,-0.01 0.01,-0.01 -77.28,0 -139.97,-62.63 -140.04,-139.9l-0.02 -426.83c0.02,-77.34 62.73,-140.05 140.06,-140.05l144.36 0.01c77.34,-0.01 140.05,62.7 140.05,140.03"/>
  <path class="fil0 str4" d="M1815.97 7128.48c-0.07,77.27 -62.76,139.9 -140.04,139.9 0,0 0,0 0,0l-144.38 0.01c0.01,-0.01 0.01,-0.01 0.01,-0.01 -77.28,0 -139.97,-62.63 -140.04,-139.9l-0.02 -426.83c0.02,-77.34 62.73,-140.05 140.06,-140.05l144.36 0.01c77.34,-0.01 140.05,62.7 140.05,140.03"/>
  <path class="fil0 str5" d="M1815.97 7128.48c-0.07,77.27 -62.76,139.9 -140.04,139.9 0,0 0,0 0,0l-144.38 0.01c0.01,-0.01 0.01,-0.01 0.01,-0.01 -77.28,0 -139.97,-62.63 -140.04,-139.9l-0.02 -426.83c0.02,-77.34 62.73,-140.05 140.06,-140.05l144.36 0.01c77.34,-0.01 140.05,62.7 140.05,140.03"/>
  <path class="fil0 str6" d="M1815.97 7128.48c-0.07,77.27 -62.76,139.9 -140.04,139.9 0,0 0,0 0,0l-144.38 0.01c0.01,-0.01 0.01,-0.01 0.01,-0.01 -77.28,0 -139.97,-62.63 -140.04,-139.9l-0.02 -426.83c0.02,-77.34 62.73,-140.05 140.06,-140.05l144.36 0.01c77.34,-0.01 140.05,62.7 140.05,140.03"/>
  <path class="fil0 str7" d="M1815.97 7128.48c-0.07,77.27 -62.76,139.9 -140.04,139.9 0,0 0,0 0,0l-144.38 0.01c0.01,-0.01 0.01,-0.01 0.01,-0.01 -77.28,0 -139.97,-62.63 -140.04,-139.9l-0.02 -426.83c0.02,-77.34 62.73,-140.05 140.06,-140.05l144.36 0.01c77.34,-0.01 140.05,62.7 140.05,140.03"/>
  <path class="fil0 str8" d="M1815.97 7128.48c-0.07,77.27 -62.76,139.9 -140.04,139.9 0,0 0,0 0,0l-144.38 0.01c0.01,-0.01 0.01,-0.01 0.01,-0.01 -77.28,0 -139.97,-62.63 -140.04,-139.9l-0.02 -426.83c0.02,-77.34 62.73,-140.05 140.06,-140.05l144.36 0.01c77.34,-0.01 140.05,62.7 140.05,140.03"/>
  <g style="clip-path:url(#id16)">
   <image x="1719.91" y="151.45" width="3858.76" height="5788.13" xlink:href="scissors_Images\scissors_ImgID17.png"/>
  </g>
  <path class="fil0 str12" d="M3042.26 4719.61l0 -194.25c0.01,-362.38 293.88,-656.25 656.25,-656.25l0 0m1008.79 -3682.74c-16.99,-2.37 -34.21,-3.59 -51.38,-3.59 -184.5,0 -340.85,135.88 -366.51,318.57l-294.41 2022.71 -293.21 -2017.31c-24.77,-183.46 -181.51,-320.46 -366.65,-320.46 -204.31,0 -369.99,165.68 -369.99,369.99 0,17.89 1.31,35.82 3.88,53.48l214.99 1529.33c-71.38,-61.32 -162.48,-95.07 -256.6,-95.07 -217.38,0 -393.65,176.18 -393.75,393.56l0 355.29c0.19,-5.31 0.33,-10.74 0.33,-16.08 0,-217.43 -176.32,-393.75 -393.75,-393.75 -217.43,0 -393.75,176.32 -393.75,393.75 0,5.34 0.14,10.77 0.34,16.06l0 1066.8c0,785.79 592.99,1471.97 1377.21,1522.5 807.84,52.5 1573.56,-557.55 1573.56,-1513.84 0,-1262.76 0,-840.79 324.71,-3264.84 2.33,-16.97 3.55,-34.14 3.55,-51.3 0,-184.25 -135.65,-340.49 -318.04,-366.33l-0.53 0.53zm-1524.34 1948.4m-1042.39 264.6l0 0c-217.42,0 -393.74,176.32 -393.74,393.75l0 480.38c0,217.43 176.32,393.75 393.75,393.75l-0.01 0c217.44,0 393.76,-176.32 393.76,-393.75l0 -480.38c0,-217.43 -176.32,-393.75 -393.75,-393.75l-0.01 0zm1180.59 701.4l0 -663.2c0.01,-217.43 -176.31,-393.75 -393.74,-393.75l-0.01 0c-217.42,0 -393.74,176.32 -393.74,393.75l0 663.21m2163.91 767.81l0 0c0,0 0,0 0,0 0,-423.98 -343.74,-767.81 -767.72,-767.81l-1195.12 -0.01c0.01,0 0.01,0 0.01,0 -112.34,0 -203.44,91.1 -203.44,203.44 0,0.02 0,0.1 0,0.12l-0.01 0.01c0.01,311.65 252.74,564.38 564.39,564.38l603.74 0"/>
  <g style="clip-path:url(#id17)">
   <image x="94.65" y="-1473.81" width="6588.75" height="8518.12" xlink:href="scissors_Images\scissors_ImgID18.png"/>
  </g>
  <g id="_3010879773648">
   <path class="fil1 str13" d="M3042.26 4719.61l0 -194.25c0.01,-362.38 293.88,-656.25 656.25,-656.25l0 0m1008.79 -3682.74c-16.99,-2.37 -34.21,-3.59 -51.38,-3.59 -184.5,0 -340.85,135.88 -366.51,318.57l-294.41 2022.71 -293.21 -2017.31c-24.77,-183.46 -181.51,-320.46 -366.65,-320.46 -204.31,0 -369.99,165.68 -369.99,369.99 0,17.89 1.31,35.82 3.88,53.48l214.99 1529.33c-71.38,-61.32 -162.48,-95.07 -256.6,-95.07 -217.38,0 -393.65,176.18 -393.75,393.56l0 355.29c0.19,-5.31 0.33,-10.74 0.33,-16.08 0,-217.43 -176.32,-393.75 -393.75,-393.75 -217.43,0 -393.75,176.32 -393.75,393.75 0,5.34 0.14,10.77 0.34,16.06l0 1066.8c0,785.79 592.99,1471.97 1377.21,1522.5 807.84,52.5 1573.56,-557.55 1573.56,-1513.84 0,-1262.76 0,-840.79 324.71,-3264.84 2.33,-16.97 3.55,-34.14 3.55,-51.3 0,-184.25 -135.65,-340.49 -318.04,-366.33l-0.53 0.53zm-1524.34 1948.4m-1042.39 264.6l0 0c-217.42,0 -393.74,176.32 -393.74,393.75l0 480.38c0,217.43 176.32,393.75 393.75,393.75l-0.01 0c217.44,0 393.76,-176.32 393.76,-393.75l0 -480.38c0,-217.43 -176.32,-393.75 -393.75,-393.75l-0.01 0zm1180.59 701.4l0 -663.2c0.01,-217.43 -176.31,-393.75 -393.74,-393.75l-0.01 0c-217.42,0 -393.74,176.32 -393.74,393.75l0 663.21m2163.91 767.81l0 0c0,0 0,0 0,0 0,-423.98 -343.74,-767.81 -767.72,-767.81l-1195.12 -0.01c0.01,0 0.01,0 0.01,0 -112.34,0 -203.44,91.1 -203.44,203.44 0,0.02 0,0.1 0,0.12l-0.01 0.01c0.01,311.65 252.74,564.38 564.39,564.38l603.74 0"/>
  </g>
  <g id="_3010879771440">
   <path class="fil2 str14" d="M3042.26 4719.61l0 -194.25c0.01,-362.38 293.88,-656.25 656.25,-656.25l0 0m1008.79 -3682.74c-16.99,-2.37 -34.21,-3.59 -51.38,-3.59 -184.5,0 -340.85,135.88 -366.51,318.57l-294.41 2022.71 -293.21 -2017.31c-24.77,-183.46 -181.51,-320.46 -366.65,-320.46 -204.31,0 -369.99,165.68 -369.99,369.99 0,17.89 1.31,35.82 3.88,53.48l214.99 1529.33c-71.38,-61.32 -162.48,-95.07 -256.6,-95.07 -217.38,0 -393.65,176.18 -393.75,393.56l0 355.29c0.19,-5.31 0.33,-10.74 0.33,-16.08 0,-217.43 -176.32,-393.75 -393.75,-393.75 -217.43,0 -393.75,176.32 -393.75,393.75 0,5.34 0.14,10.77 0.34,16.06l0 1066.8c0,785.79 592.99,1471.97 1377.21,1522.5 807.84,52.5 1573.56,-557.55 1573.56,-1513.84 0,-1262.76 0,-840.79 324.71,-3264.84 2.33,-16.97 3.55,-34.14 3.55,-51.3 0,-184.25 -135.65,-340.49 -318.04,-366.33l-0.53 0.53zm-1524.34 1948.4m-1042.39 264.6l0 0c-217.42,0 -393.74,176.32 -393.74,393.75l0 480.38c0,217.43 176.32,393.75 393.75,393.75l-0.01 0c217.44,0 393.76,-176.32 393.76,-393.75l0 -480.38c0,-217.43 -176.32,-393.75 -393.75,-393.75l-0.01 0zm1180.59 701.4l0 -663.2c0.01,-217.43 -176.31,-393.75 -393.74,-393.75l-0.01 0c-217.42,0 -393.74,176.32 -393.74,393.75l0 663.21m2163.91 767.81l0 0c0,0 0,0 0,0 0,-423.98 -343.74,-767.81 -767.72,-767.81l-1195.12 -0.01c0.01,0 0.01,0 0.01,0 -112.34,0 -203.44,91.1 -203.44,203.44 0,0.02 0,0.1 0,0.12l-0.01 0.01c0.01,311.65 252.74,564.38 564.39,564.38l603.74 0"/>
  </g>
  <g id="_3010879773456">
   <path class="fil3 str15" d="M3042.26 4719.61l0 -194.25c0.01,-362.38 293.88,-656.25 656.25,-656.25l0 0m1008.79 -3682.74c-16.99,-2.37 -34.21,-3.59 -51.38,-3.59 -184.5,0 -340.85,135.88 -366.51,318.57l-294.41 2022.71 -293.21 -2017.31c-24.77,-183.46 -181.51,-320.46 -366.65,-320.46 -204.31,0 -369.99,165.68 -369.99,369.99 0,17.89 1.31,35.82 3.88,53.48l214.99 1529.33c-71.38,-61.32 -162.48,-95.07 -256.6,-95.07 -217.38,0 -393.65,176.18 -393.75,393.56l0 355.29c0.19,-5.31 0.33,-10.74 0.33,-16.08 0,-217.43 -176.32,-393.75 -393.75,-393.75 -217.43,0 -393.75,176.32 -393.75,393.75 0,5.34 0.14,10.77 0.34,16.06l0 1066.8c0,785.79 592.99,1471.97 1377.21,1522.5 807.84,52.5 1573.56,-557.55 1573.56,-1513.84 0,-1262.76 0,-840.79 324.71,-3264.84 2.33,-16.97 3.55,-34.14 3.55,-51.3 0,-184.25 -135.65,-340.49 -318.04,-366.33l-0.53 0.53zm-1524.34 1948.4m-1042.39 264.6l0 0c-217.42,0 -393.74,176.32 -393.74,393.75l0 480.38c0,217.43 176.32,393.75 393.75,393.75l-0.01 0c217.44,0 393.76,-176.32 393.76,-393.75l0 -480.38c0,-217.43 -176.32,-393.75 -393.75,-393.75l-0.01 0zm1180.59 701.4l0 -663.2c0.01,-217.43 -176.31,-393.75 -393.74,-393.75l-0.01 0c-217.42,0 -393.74,176.32 -393.74,393.75l0 663.21m2163.91 767.81l0 0c0,0 0,0 0,0 0,-423.98 -343.74,-767.81 -767.72,-767.81l-1195.12 -0.01c0.01,0 0.01,0 0.01,0 -112.34,0 -203.44,91.1 -203.44,203.44 0,0.02 0,0.1 0,0.12l-0.01 0.01c0.01,311.65 252.74,564.38 564.39,564.38l603.74 0"/>
  </g>
  <path class="fil0 str16" d="M3042.26 4719.61l0 -194.25c0.01,-362.38 293.88,-656.25 656.25,-656.25l0 0m1008.79 -3682.74c-16.99,-2.37 -34.21,-3.59 -51.38,-3.59 -184.5,0 -340.85,135.88 -366.51,318.57l-294.41 2022.71 -293.21 -2017.31c-24.77,-183.46 -181.51,-320.46 -366.65,-320.46 -204.31,0 -369.99,165.68 -369.99,369.99 0,17.89 1.31,35.82 3.88,53.48l214.99 1529.33c-71.38,-61.32 -162.48,-95.07 -256.6,-95.07 -217.38,0 -393.65,176.18 -393.75,393.56l0 355.29c0.19,-5.31 0.33,-10.74 0.33,-16.08 0,-217.43 -176.32,-393.75 -393.75,-393.75 -217.43,0 -393.75,176.32 -393.75,393.75 0,5.34 0.14,10.77 0.34,16.06l0 1066.8c0,785.79 592.99,1471.97 1377.21,1522.5 807.84,52.5 1573.56,-557.55 1573.56,-1513.84 0,-1262.76 0,-840.79 324.71,-3264.84 2.33,-16.97 3.55,-34.14 3.55,-51.3 0,-184.25 -135.65,-340.49 -318.04,-366.33l-0.53 0.53zm-1524.34 1948.4m-1042.39 264.6l0 0c-217.42,0 -393.74,176.32 -393.74,393.75l0 480.38c0,217.43 176.32,393.75 393.75,393.75l-0.01 0c217.44,0 393.76,-176.32 393.76,-393.75l0 -480.38c0,-217.43 -176.32,-393.75 -393.75,-393.75l-0.01 0zm1180.59 701.4l0 -663.2c0.01,-217.43 -176.31,-393.75 -393.74,-393.75l-0.01 0c-217.42,0 -393.74,176.32 -393.74,393.75l0 663.21m2163.91 767.81l0 0c0,0 0,0 0,0 0,-423.98 -343.74,-767.81 -767.72,-767.81l-1195.12 -0.01c0.01,0 0.01,0 0.01,0 -112.34,0 -203.44,91.1 -203.44,203.44 0,0.02 0,0.1 0,0.12l-0.01 0.01c0.01,311.65 252.74,564.38 564.39,564.38l603.74 0"/>
  <path class="fil0 str17" d="M3042.26 4719.61l0 -194.25c0.01,-362.38 293.88,-656.25 656.25,-656.25l0 0m1008.79 -3682.74c-16.99,-2.37 -34.21,-3.59 -51.38,-3.59 -184.5,0 -340.85,135.88 -366.51,318.57l-294.41 2022.71 -293.21 -2017.31c-24.77,-183.46 -181.51,-320.46 -366.65,-320.46 -204.31,0 -369.99,165.68 -369.99,369.99 0,17.89 1.31,35.82 3.88,53.48l214.99 1529.33c-71.38,-61.32 -162.48,-95.07 -256.6,-95.07 -217.38,0 -393.65,176.18 -393.75,393.56l0 355.29c0.19,-5.31 0.33,-10.74 0.33,-16.08 0,-217.43 -176.32,-393.75 -393.75,-393.75 -217.43,0 -393.75,176.32 -393.75,393.75 0,5.34 0.14,10.77 0.34,16.06l0 1066.8c0,785.79 592.99,1471.97 1377.21,1522.5 807.84,52.5 1573.56,-557.55 1573.56,-1513.84 0,-1262.76 0,-840.79 324.71,-3264.84 2.33,-16.97 3.55,-34.14 3.55,-51.3 0,-184.25 -135.65,-340.49 -318.04,-366.33l-0.53 0.53zm-1524.34 1948.4m-1042.39 264.6l0 0c-217.42,0 -393.74,176.32 -393.74,393.75l0 480.38c0,217.43 176.32,393.75 393.75,393.75l-0.01 0c217.44,0 393.76,-176.32 393.76,-393.75l0 -480.38c0,-217.43 -176.32,-393.75 -393.75,-393.75l-0.01 0zm1180.59 701.4l0 -663.2c0.01,-217.43 -176.31,-393.75 -393.74,-393.75l-0.01 0c-217.42,0 -393.74,176.32 -393.74,393.75l0 663.21m2163.91 767.81l0 0c0,0 0,0 0,0 0,-423.98 -343.74,-767.81 -767.72,-767.81l-1195.12 -0.01c0.01,0 0.01,0 0.01,0 -112.34,0 -203.44,91.1 -203.44,203.44 0,0.02 0,0.1 0,0.12l-0.01 0.01c0.01,311.65 252.74,564.38 564.39,564.38l603.74 0"/>
  <path class="fil0 str18" d="M3042.26 4719.61l0 -194.25c0.01,-362.38 293.88,-656.25 656.25,-656.25l0 0m1008.79 -3682.74c-16.99,-2.37 -34.21,-3.59 -51.38,-3.59 -184.5,0 -340.85,135.88 -366.51,318.57l-294.41 2022.71 -293.21 -2017.31c-24.77,-183.46 -181.51,-320.46 -366.65,-320.46 -204.31,0 -369.99,165.68 -369.99,369.99 0,17.89 1.31,35.82 3.88,53.48l214.99 1529.33c-71.38,-61.32 -162.48,-95.07 -256.6,-95.07 -217.38,0 -393.65,176.18 -393.75,393.56l0 355.29c0.19,-5.31 0.33,-10.74 0.33,-16.08 0,-217.43 -176.32,-393.75 -393.75,-393.75 -217.43,0 -393.75,176.32 -393.75,393.75 0,5.34 0.14,10.77 0.34,16.06l0 1066.8c0,785.79 592.99,1471.97 1377.21,1522.5 807.84,52.5 1573.56,-557.55 1573.56,-1513.84 0,-1262.76 0,-840.79 324.71,-3264.84 2.33,-16.97 3.55,-34.14 3.55,-51.3 0,-184.25 -135.65,-340.49 -318.04,-366.33l-0.53 0.53zm-1524.34 1948.4m-1042.39 264.6l0 0c-217.42,0 -393.74,176.32 -393.74,393.75l0 480.38c0,217.43 176.32,393.75 393.75,393.75l-0.01 0c217.44,0 393.76,-176.32 393.76,-393.75l0 -480.38c0,-217.43 -176.32,-393.75 -393.75,-393.75l-0.01 0zm1180.59 701.4l0 -663.2c0.01,-217.43 -176.31,-393.75 -393.74,-393.75l-0.01 0c-217.42,0 -393.74,176.32 -393.74,393.75l0 663.21m2163.91 767.81l0 0c0,0 0,0 0,0 0,-423.98 -343.74,-767.81 -767.72,-767.81l-1195.12 -0.01c0.01,0 0.01,0 0.01,0 -112.34,0 -203.44,91.1 -203.44,203.44 0,0.02 0,0.1 0,0.12l-0.01 0.01c0.01,311.65 252.74,564.38 564.39,564.38l603.74 0"/>
  <path class="fil0 str19" d="M3042.26 4719.61l0 -194.25c0.01,-362.38 293.88,-656.25 656.25,-656.25l0 0m1008.79 -3682.74c-16.99,-2.37 -34.21,-3.59 -51.38,-3.59 -184.5,0 -340.85,135.88 -366.51,318.57l-294.41 2022.71 -293.21 -2017.31c-24.77,-183.46 -181.51,-320.46 -366.65,-320.46 -204.31,0 -369.99,165.68 -369.99,369.99 0,17.89 1.31,35.82 3.88,53.48l214.99 1529.33c-71.38,-61.32 -162.48,-95.07 -256.6,-95.07 -217.38,0 -393.65,176.18 -393.75,393.56l0 355.29c0.19,-5.31 0.33,-10.74 0.33,-16.08 0,-217.43 -176.32,-393.75 -393.75,-393.75 -217.43,0 -393.75,176.32 -393.75,393.75 0,5.34 0.14,10.77 0.34,16.06l0 1066.8c0,785.79 592.99,1471.97 1377.21,1522.5 807.84,52.5 1573.56,-557.55 1573.56,-1513.84 0,-1262.76 0,-840.79 324.71,-3264.84 2.33,-16.97 3.55,-34.14 3.55,-51.3 0,-184.25 -135.65,-340.49 -318.04,-366.33l-0.53 0.53zm-1524.34 1948.4m-1042.39 264.6l0 0c-217.42,0 -393.74,176.32 -393.74,393.75l0 480.38c0,217.43 176.32,393.75 393.75,393.75l-0.01 0c217.44,0 393.76,-176.32 393.76,-393.75l0 -480.38c0,-217.43 -176.32,-393.75 -393.75,-393.75l-0.01 0zm1180.59 701.4l0 -663.2c0.01,-217.43 -176.31,-393.75 -393.74,-393.75l-0.01 0c-217.42,0 -393.74,176.32 -393.74,393.75l0 663.21m2163.91 767.81l0 0c0,0 0,0 0,0 0,-423.98 -343.74,-767.81 -767.72,-767.81l-1195.12 -0.01c0.01,0 0.01,0 0.01,0 -112.34,0 -203.44,91.1 -203.44,203.44 0,0.02 0,0.1 0,0.12l-0.01 0.01c0.01,311.65 252.74,564.38 564.39,564.38l603.74 0"/>
  <path class="fil0 str20" d="M3042.26 4719.61l0 -194.25c0.01,-362.38 293.88,-656.25 656.25,-656.25l0 0m1008.79 -3682.74c-16.99,-2.37 -34.21,-3.59 -51.38,-3.59 -184.5,0 -340.85,135.88 -366.51,318.57l-294.41 2022.71 -293.21 -2017.31c-24.77,-183.46 -181.51,-320.46 -366.65,-320.46 -204.31,0 -369.99,165.68 -369.99,369.99 0,17.89 1.31,35.82 3.88,53.48l214.99 1529.33c-71.38,-61.32 -162.48,-95.07 -256.6,-95.07 -217.38,0 -393.65,176.18 -393.75,393.56l0 355.29c0.19,-5.31 0.33,-10.74 0.33,-16.08 0,-217.43 -176.32,-393.75 -393.75,-393.75 -217.43,0 -393.75,176.32 -393.75,393.75 0,5.34 0.14,10.77 0.34,16.06l0 1066.8c0,785.79 592.99,1471.97 1377.21,1522.5 807.84,52.5 1573.56,-557.55 1573.56,-1513.84 0,-1262.76 0,-840.79 324.71,-3264.84 2.33,-16.97 3.55,-34.14 3.55,-51.3 0,-184.25 -135.65,-340.49 -318.04,-366.33l-0.53 0.53zm-1524.34 1948.4m-1042.39 264.6l0 0c-217.42,0 -393.74,176.32 -393.74,393.75l0 480.38c0,217.43 176.32,393.75 393.75,393.75l-0.01 0c217.44,0 393.76,-176.32 393.76,-393.75l0 -480.38c0,-217.43 -176.32,-393.75 -393.75,-393.75l-0.01 0zm1180.59 701.4l0 -663.2c0.01,-217.43 -176.31,-393.75 -393.74,-393.75l-0.01 0c-217.42,0 -393.74,176.32 -393.74,393.75l0 663.21m2163.91 767.81l0 0c0,0 0,0 0,0 0,-423.98 -343.74,-767.81 -767.72,-767.81l-1195.12 -0.01c0.01,0 0.01,0 0.01,0 -112.34,0 -203.44,91.1 -203.44,203.44 0,0.02 0,0.1 0,0.12l-0.01 0.01c0.01,311.65 252.74,564.38 564.39,564.38l603.74 0"/>
 </g>
</svg>
